<mxfile host="app.diagrams.net" agent="Mozilla/5.0 (Macintosh; Intel Mac OS X 10_15_7) AppleWebKit/537.36 (KHTML, like Gecko) Chrome/135.0.0.0 Safari/537.36 Edg/135.0.0.0" version="26.2.9">
  <diagram name="Page-1" id="ijYJmBXsb1PqmAlayNFn">
    <mxGraphModel dx="3848" dy="2928" grid="1" gridSize="10" guides="1" tooltips="1" connect="1" arrows="1" fold="1" page="1" pageScale="1" pageWidth="850" pageHeight="1100" math="0" shadow="0">
      <root>
        <mxCell id="0" />
        <mxCell id="1" parent="0" />
        <mxCell id="RO0mTksg29DLi3yOSm6j-629" value="RestaurantController" style="swimlane;fontStyle=1;align=center;verticalAlign=top;childLayout=stackLayout;horizontal=1;startSize=32;horizontalStack=0;resizeParent=1;resizeParentMax=0;resizeLast=0;collapsible=0;marginBottom=0;" vertex="1" parent="1">
          <mxGeometry x="370" y="393" width="570" height="264" as="geometry" />
        </mxCell>
        <mxCell id="RO0mTksg29DLi3yOSm6j-630" value="-RestaurantService restaurantService" style="text;strokeColor=none;fillColor=none;align=left;verticalAlign=top;spacingLeft=4;spacingRight=4;overflow=hidden;rotatable=0;points=[[0,0.5],[1,0.5]];portConstraint=eastwest;" vertex="1" parent="RO0mTksg29DLi3yOSm6j-629">
          <mxGeometry y="32" width="570" height="32" as="geometry" />
        </mxCell>
        <mxCell id="RO0mTksg29DLi3yOSm6j-631" style="line;strokeWidth=1;fillColor=none;align=left;verticalAlign=middle;spacingTop=-1;spacingLeft=3;spacingRight=3;rotatable=0;labelPosition=right;points=[];portConstraint=eastwest;strokeColor=inherit;" vertex="1" parent="RO0mTksg29DLi3yOSm6j-629">
          <mxGeometry y="64" width="570" height="8" as="geometry" />
        </mxCell>
        <mxCell id="RO0mTksg29DLi3yOSm6j-632" value="+getAllRestaurants() : ResponseEntity" style="text;strokeColor=none;fillColor=none;align=left;verticalAlign=top;spacingLeft=4;spacingRight=4;overflow=hidden;rotatable=0;points=[[0,0.5],[1,0.5]];portConstraint=eastwest;" vertex="1" parent="RO0mTksg29DLi3yOSm6j-629">
          <mxGeometry y="72" width="570" height="32" as="geometry" />
        </mxCell>
        <mxCell id="RO0mTksg29DLi3yOSm6j-633" value="+getRestaurantById(Long id) : ResponseEntity" style="text;strokeColor=none;fillColor=none;align=left;verticalAlign=top;spacingLeft=4;spacingRight=4;overflow=hidden;rotatable=0;points=[[0,0.5],[1,0.5]];portConstraint=eastwest;" vertex="1" parent="RO0mTksg29DLi3yOSm6j-629">
          <mxGeometry y="104" width="570" height="32" as="geometry" />
        </mxCell>
        <mxCell id="RO0mTksg29DLi3yOSm6j-634" value="+createRestaurant(RestaurantDTO dto) : ResponseEntity" style="text;strokeColor=none;fillColor=none;align=left;verticalAlign=top;spacingLeft=4;spacingRight=4;overflow=hidden;rotatable=0;points=[[0,0.5],[1,0.5]];portConstraint=eastwest;" vertex="1" parent="RO0mTksg29DLi3yOSm6j-629">
          <mxGeometry y="136" width="570" height="32" as="geometry" />
        </mxCell>
        <mxCell id="RO0mTksg29DLi3yOSm6j-635" value="+updateRestaurant(Long id, RestaurantDTO dto) : ResponseEntity" style="text;strokeColor=none;fillColor=none;align=left;verticalAlign=top;spacingLeft=4;spacingRight=4;overflow=hidden;rotatable=0;points=[[0,0.5],[1,0.5]];portConstraint=eastwest;" vertex="1" parent="RO0mTksg29DLi3yOSm6j-629">
          <mxGeometry y="168" width="570" height="32" as="geometry" />
        </mxCell>
        <mxCell id="RO0mTksg29DLi3yOSm6j-636" value="+getRestaurantsByManagerId(Long managerId) : ResponseEntity" style="text;strokeColor=none;fillColor=none;align=left;verticalAlign=top;spacingLeft=4;spacingRight=4;overflow=hidden;rotatable=0;points=[[0,0.5],[1,0.5]];portConstraint=eastwest;" vertex="1" parent="RO0mTksg29DLi3yOSm6j-629">
          <mxGeometry y="200" width="570" height="32" as="geometry" />
        </mxCell>
        <mxCell id="RO0mTksg29DLi3yOSm6j-637" value="+searchRestaurants(SearchDTO searchDto) : ResponseEntity" style="text;strokeColor=none;fillColor=none;align=left;verticalAlign=top;spacingLeft=4;spacingRight=4;overflow=hidden;rotatable=0;points=[[0,0.5],[1,0.5]];portConstraint=eastwest;" vertex="1" parent="RO0mTksg29DLi3yOSm6j-629">
          <mxGeometry y="232" width="570" height="32" as="geometry" />
        </mxCell>
        <mxCell id="RO0mTksg29DLi3yOSm6j-638" value="BookingController" style="swimlane;fontStyle=1;align=center;verticalAlign=top;childLayout=stackLayout;horizontal=1;startSize=31.11111111111111;horizontalStack=0;resizeParent=1;resizeParentMax=0;resizeLast=0;collapsible=0;marginBottom=0;" vertex="1" parent="1">
          <mxGeometry x="4664" y="381" width="713" height="287.1111111111111" as="geometry" />
        </mxCell>
        <mxCell id="RO0mTksg29DLi3yOSm6j-639" value="-BookingService bookingService" style="text;strokeColor=none;fillColor=none;align=left;verticalAlign=top;spacingLeft=4;spacingRight=4;overflow=hidden;rotatable=0;points=[[0,0.5],[1,0.5]];portConstraint=eastwest;" vertex="1" parent="RO0mTksg29DLi3yOSm6j-638">
          <mxGeometry y="31.11111111111111" width="713" height="31" as="geometry" />
        </mxCell>
        <mxCell id="RO0mTksg29DLi3yOSm6j-640" style="line;strokeWidth=1;fillColor=none;align=left;verticalAlign=middle;spacingTop=-1;spacingLeft=3;spacingRight=3;rotatable=0;labelPosition=right;points=[];portConstraint=eastwest;strokeColor=inherit;" vertex="1" parent="RO0mTksg29DLi3yOSm6j-638">
          <mxGeometry y="62.111111111111114" width="713" height="8" as="geometry" />
        </mxCell>
        <mxCell id="RO0mTksg29DLi3yOSm6j-641" value="+createBooking(BookingDTO dto) : ResponseEntity" style="text;strokeColor=none;fillColor=none;align=left;verticalAlign=top;spacingLeft=4;spacingRight=4;overflow=hidden;rotatable=0;points=[[0,0.5],[1,0.5]];portConstraint=eastwest;" vertex="1" parent="RO0mTksg29DLi3yOSm6j-638">
          <mxGeometry y="70.11111111111111" width="713" height="31" as="geometry" />
        </mxCell>
        <mxCell id="RO0mTksg29DLi3yOSm6j-642" value="+getBookingById(Long id) : ResponseEntity" style="text;strokeColor=none;fillColor=none;align=left;verticalAlign=top;spacingLeft=4;spacingRight=4;overflow=hidden;rotatable=0;points=[[0,0.5],[1,0.5]];portConstraint=eastwest;" vertex="1" parent="RO0mTksg29DLi3yOSm6j-638">
          <mxGeometry y="101.11111111111111" width="713" height="31" as="geometry" />
        </mxCell>
        <mxCell id="RO0mTksg29DLi3yOSm6j-643" value="+getUserBookings(Long userId) : ResponseEntity" style="text;strokeColor=none;fillColor=none;align=left;verticalAlign=top;spacingLeft=4;spacingRight=4;overflow=hidden;rotatable=0;points=[[0,0.5],[1,0.5]];portConstraint=eastwest;" vertex="1" parent="RO0mTksg29DLi3yOSm6j-638">
          <mxGeometry y="132.11111111111111" width="713" height="31" as="geometry" />
        </mxCell>
        <mxCell id="RO0mTksg29DLi3yOSm6j-644" value="+getRestaurantBookings(Long restaurantId) : ResponseEntity" style="text;strokeColor=none;fillColor=none;align=left;verticalAlign=top;spacingLeft=4;spacingRight=4;overflow=hidden;rotatable=0;points=[[0,0.5],[1,0.5]];portConstraint=eastwest;" vertex="1" parent="RO0mTksg29DLi3yOSm6j-638">
          <mxGeometry y="163.11111111111111" width="713" height="31" as="geometry" />
        </mxCell>
        <mxCell id="RO0mTksg29DLi3yOSm6j-645" value="+updateBookingStatus(Long id, String status) : ResponseEntity" style="text;strokeColor=none;fillColor=none;align=left;verticalAlign=top;spacingLeft=4;spacingRight=4;overflow=hidden;rotatable=0;points=[[0,0.5],[1,0.5]];portConstraint=eastwest;" vertex="1" parent="RO0mTksg29DLi3yOSm6j-638">
          <mxGeometry y="194.11111111111111" width="713" height="31" as="geometry" />
        </mxCell>
        <mxCell id="RO0mTksg29DLi3yOSm6j-646" value="+cancelBooking(Long id) : ResponseEntity" style="text;strokeColor=none;fillColor=none;align=left;verticalAlign=top;spacingLeft=4;spacingRight=4;overflow=hidden;rotatable=0;points=[[0,0.5],[1,0.5]];portConstraint=eastwest;" vertex="1" parent="RO0mTksg29DLi3yOSm6j-638">
          <mxGeometry y="225.11111111111111" width="713" height="31" as="geometry" />
        </mxCell>
        <mxCell id="RO0mTksg29DLi3yOSm6j-647" value="+getAvailableTimes(Long restaurantId, String date, Integer partySize) : ResponseEntity" style="text;strokeColor=none;fillColor=none;align=left;verticalAlign=top;spacingLeft=4;spacingRight=4;overflow=hidden;rotatable=0;points=[[0,0.5],[1,0.5]];portConstraint=eastwest;" vertex="1" parent="RO0mTksg29DLi3yOSm6j-638">
          <mxGeometry y="256.1111111111111" width="713" height="31" as="geometry" />
        </mxCell>
        <mxCell id="RO0mTksg29DLi3yOSm6j-648" value="UserController" style="swimlane;fontStyle=1;align=center;verticalAlign=top;childLayout=stackLayout;horizontal=1;startSize=33.142857142857146;horizontalStack=0;resizeParent=1;resizeParentMax=0;resizeLast=0;collapsible=0;marginBottom=0;" vertex="1" parent="1">
          <mxGeometry x="3902" y="405" width="503" height="239.14285714285714" as="geometry" />
        </mxCell>
        <mxCell id="RO0mTksg29DLi3yOSm6j-649" value="-UserService userService" style="text;strokeColor=none;fillColor=none;align=left;verticalAlign=top;spacingLeft=4;spacingRight=4;overflow=hidden;rotatable=0;points=[[0,0.5],[1,0.5]];portConstraint=eastwest;" vertex="1" parent="RO0mTksg29DLi3yOSm6j-648">
          <mxGeometry y="33.142857142857146" width="503" height="33" as="geometry" />
        </mxCell>
        <mxCell id="RO0mTksg29DLi3yOSm6j-650" value="-AuthService authService" style="text;strokeColor=none;fillColor=none;align=left;verticalAlign=top;spacingLeft=4;spacingRight=4;overflow=hidden;rotatable=0;points=[[0,0.5],[1,0.5]];portConstraint=eastwest;" vertex="1" parent="RO0mTksg29DLi3yOSm6j-648">
          <mxGeometry y="66.14285714285714" width="503" height="33" as="geometry" />
        </mxCell>
        <mxCell id="RO0mTksg29DLi3yOSm6j-651" style="line;strokeWidth=1;fillColor=none;align=left;verticalAlign=middle;spacingTop=-1;spacingLeft=3;spacingRight=3;rotatable=0;labelPosition=right;points=[];portConstraint=eastwest;strokeColor=inherit;" vertex="1" parent="RO0mTksg29DLi3yOSm6j-648">
          <mxGeometry y="99.14285714285714" width="503" height="8" as="geometry" />
        </mxCell>
        <mxCell id="RO0mTksg29DLi3yOSm6j-652" value="+register(UserDTO dto) : ResponseEntity" style="text;strokeColor=none;fillColor=none;align=left;verticalAlign=top;spacingLeft=4;spacingRight=4;overflow=hidden;rotatable=0;points=[[0,0.5],[1,0.5]];portConstraint=eastwest;" vertex="1" parent="RO0mTksg29DLi3yOSm6j-648">
          <mxGeometry y="107.14285714285714" width="503" height="33" as="geometry" />
        </mxCell>
        <mxCell id="RO0mTksg29DLi3yOSm6j-653" value="+login(LoginDTO dto) : ResponseEntity" style="text;strokeColor=none;fillColor=none;align=left;verticalAlign=top;spacingLeft=4;spacingRight=4;overflow=hidden;rotatable=0;points=[[0,0.5],[1,0.5]];portConstraint=eastwest;" vertex="1" parent="RO0mTksg29DLi3yOSm6j-648">
          <mxGeometry y="140.14285714285714" width="503" height="33" as="geometry" />
        </mxCell>
        <mxCell id="RO0mTksg29DLi3yOSm6j-654" value="+getUserProfile(Long id) : ResponseEntity" style="text;strokeColor=none;fillColor=none;align=left;verticalAlign=top;spacingLeft=4;spacingRight=4;overflow=hidden;rotatable=0;points=[[0,0.5],[1,0.5]];portConstraint=eastwest;" vertex="1" parent="RO0mTksg29DLi3yOSm6j-648">
          <mxGeometry y="173.14285714285714" width="503" height="33" as="geometry" />
        </mxCell>
        <mxCell id="RO0mTksg29DLi3yOSm6j-655" value="+updateUserProfile(Long id, UserDTO dto) : ResponseEntity" style="text;strokeColor=none;fillColor=none;align=left;verticalAlign=top;spacingLeft=4;spacingRight=4;overflow=hidden;rotatable=0;points=[[0,0.5],[1,0.5]];portConstraint=eastwest;" vertex="1" parent="RO0mTksg29DLi3yOSm6j-648">
          <mxGeometry y="206.14285714285714" width="503" height="33" as="geometry" />
        </mxCell>
        <mxCell id="RO0mTksg29DLi3yOSm6j-656" value="ReviewController" style="swimlane;fontStyle=1;align=center;verticalAlign=top;childLayout=stackLayout;horizontal=1;startSize=34.666666666666664;horizontalStack=0;resizeParent=1;resizeParentMax=0;resizeLast=0;collapsible=0;marginBottom=0;" vertex="1" parent="1">
          <mxGeometry x="3527" y="56" width="516" height="217.66666666666666" as="geometry" />
        </mxCell>
        <mxCell id="RO0mTksg29DLi3yOSm6j-657" value="-ReviewService reviewService" style="text;strokeColor=none;fillColor=none;align=left;verticalAlign=top;spacingLeft=4;spacingRight=4;overflow=hidden;rotatable=0;points=[[0,0.5],[1,0.5]];portConstraint=eastwest;" vertex="1" parent="RO0mTksg29DLi3yOSm6j-656">
          <mxGeometry y="34.666666666666664" width="516" height="35" as="geometry" />
        </mxCell>
        <mxCell id="RO0mTksg29DLi3yOSm6j-658" style="line;strokeWidth=1;fillColor=none;align=left;verticalAlign=middle;spacingTop=-1;spacingLeft=3;spacingRight=3;rotatable=0;labelPosition=right;points=[];portConstraint=eastwest;strokeColor=inherit;" vertex="1" parent="RO0mTksg29DLi3yOSm6j-656">
          <mxGeometry y="69.66666666666666" width="516" height="8" as="geometry" />
        </mxCell>
        <mxCell id="RO0mTksg29DLi3yOSm6j-659" value="+getRestaurantReviews(Long restaurantId) : ResponseEntity" style="text;strokeColor=none;fillColor=none;align=left;verticalAlign=top;spacingLeft=4;spacingRight=4;overflow=hidden;rotatable=0;points=[[0,0.5],[1,0.5]];portConstraint=eastwest;" vertex="1" parent="RO0mTksg29DLi3yOSm6j-656">
          <mxGeometry y="77.66666666666666" width="516" height="35" as="geometry" />
        </mxCell>
        <mxCell id="RO0mTksg29DLi3yOSm6j-660" value="+createReview(ReviewDTO dto) : ResponseEntity" style="text;strokeColor=none;fillColor=none;align=left;verticalAlign=top;spacingLeft=4;spacingRight=4;overflow=hidden;rotatable=0;points=[[0,0.5],[1,0.5]];portConstraint=eastwest;" vertex="1" parent="RO0mTksg29DLi3yOSm6j-656">
          <mxGeometry y="112.66666666666666" width="516" height="35" as="geometry" />
        </mxCell>
        <mxCell id="RO0mTksg29DLi3yOSm6j-661" value="+updateReview(Long id, ReviewDTO dto) : ResponseEntity" style="text;strokeColor=none;fillColor=none;align=left;verticalAlign=top;spacingLeft=4;spacingRight=4;overflow=hidden;rotatable=0;points=[[0,0.5],[1,0.5]];portConstraint=eastwest;" vertex="1" parent="RO0mTksg29DLi3yOSm6j-656">
          <mxGeometry y="147.66666666666666" width="516" height="35" as="geometry" />
        </mxCell>
        <mxCell id="RO0mTksg29DLi3yOSm6j-662" value="+deleteReview(Long id) : ResponseEntity" style="text;strokeColor=none;fillColor=none;align=left;verticalAlign=top;spacingLeft=4;spacingRight=4;overflow=hidden;rotatable=0;points=[[0,0.5],[1,0.5]];portConstraint=eastwest;" vertex="1" parent="RO0mTksg29DLi3yOSm6j-656">
          <mxGeometry y="182.66666666666666" width="516" height="35" as="geometry" />
        </mxCell>
        <mxCell id="RO0mTksg29DLi3yOSm6j-663" value="User" style="swimlane;fontStyle=1;align=center;verticalAlign=top;childLayout=stackLayout;horizontal=1;startSize=30.933333333333334;horizontalStack=0;resizeParent=1;resizeParentMax=0;resizeLast=0;collapsible=0;marginBottom=0;" vertex="1" parent="1">
          <mxGeometry x="946" y="44" width="229" height="231.93333333333334" as="geometry" />
        </mxCell>
        <mxCell id="RO0mTksg29DLi3yOSm6j-664" value="-Long id" style="text;strokeColor=none;fillColor=none;align=left;verticalAlign=top;spacingLeft=4;spacingRight=4;overflow=hidden;rotatable=0;points=[[0,0.5],[1,0.5]];portConstraint=eastwest;" vertex="1" parent="RO0mTksg29DLi3yOSm6j-663">
          <mxGeometry y="30.933333333333334" width="229" height="31" as="geometry" />
        </mxCell>
        <mxCell id="RO0mTksg29DLi3yOSm6j-665" value="-String email" style="text;strokeColor=none;fillColor=none;align=left;verticalAlign=top;spacingLeft=4;spacingRight=4;overflow=hidden;rotatable=0;points=[[0,0.5],[1,0.5]];portConstraint=eastwest;" vertex="1" parent="RO0mTksg29DLi3yOSm6j-663">
          <mxGeometry y="61.93333333333334" width="229" height="31" as="geometry" />
        </mxCell>
        <mxCell id="RO0mTksg29DLi3yOSm6j-666" value="-String passwordHash" style="text;strokeColor=none;fillColor=none;align=left;verticalAlign=top;spacingLeft=4;spacingRight=4;overflow=hidden;rotatable=0;points=[[0,0.5],[1,0.5]];portConstraint=eastwest;" vertex="1" parent="RO0mTksg29DLi3yOSm6j-663">
          <mxGeometry y="92.93333333333334" width="229" height="31" as="geometry" />
        </mxCell>
        <mxCell id="RO0mTksg29DLi3yOSm6j-667" value="-String role" style="text;strokeColor=none;fillColor=none;align=left;verticalAlign=top;spacingLeft=4;spacingRight=4;overflow=hidden;rotatable=0;points=[[0,0.5],[1,0.5]];portConstraint=eastwest;" vertex="1" parent="RO0mTksg29DLi3yOSm6j-663">
          <mxGeometry y="123.93333333333334" width="229" height="31" as="geometry" />
        </mxCell>
        <mxCell id="RO0mTksg29DLi3yOSm6j-668" value="-String phone" style="text;strokeColor=none;fillColor=none;align=left;verticalAlign=top;spacingLeft=4;spacingRight=4;overflow=hidden;rotatable=0;points=[[0,0.5],[1,0.5]];portConstraint=eastwest;" vertex="1" parent="RO0mTksg29DLi3yOSm6j-663">
          <mxGeometry y="154.93333333333334" width="229" height="31" as="geometry" />
        </mxCell>
        <mxCell id="RO0mTksg29DLi3yOSm6j-669" value="-LocalDateTime createdAt" style="text;strokeColor=none;fillColor=none;align=left;verticalAlign=top;spacingLeft=4;spacingRight=4;overflow=hidden;rotatable=0;points=[[0,0.5],[1,0.5]];portConstraint=eastwest;" vertex="1" parent="RO0mTksg29DLi3yOSm6j-663">
          <mxGeometry y="185.93333333333334" width="229" height="31" as="geometry" />
        </mxCell>
        <mxCell id="RO0mTksg29DLi3yOSm6j-670" style="line;strokeWidth=1;fillColor=none;align=left;verticalAlign=middle;spacingTop=-1;spacingLeft=3;spacingRight=3;rotatable=0;labelPosition=right;points=[];portConstraint=eastwest;strokeColor=inherit;" vertex="1" parent="RO0mTksg29DLi3yOSm6j-663">
          <mxGeometry y="216.93333333333334" width="229" height="15" as="geometry" />
        </mxCell>
        <mxCell id="RO0mTksg29DLi3yOSm6j-671" value="Restaurant" style="swimlane;fontStyle=1;align=center;verticalAlign=top;childLayout=stackLayout;horizontal=1;startSize=29.473684210526315;horizontalStack=0;resizeParent=1;resizeParentMax=0;resizeLast=0;collapsible=0;marginBottom=0;" vertex="1" parent="1">
          <mxGeometry x="1224" y="20" width="248" height="276.4736842105263" as="geometry" />
        </mxCell>
        <mxCell id="RO0mTksg29DLi3yOSm6j-672" value="-Long id" style="text;strokeColor=none;fillColor=none;align=left;verticalAlign=top;spacingLeft=4;spacingRight=4;overflow=hidden;rotatable=0;points=[[0,0.5],[1,0.5]];portConstraint=eastwest;" vertex="1" parent="RO0mTksg29DLi3yOSm6j-671">
          <mxGeometry y="29.473684210526315" width="248" height="29" as="geometry" />
        </mxCell>
        <mxCell id="RO0mTksg29DLi3yOSm6j-673" value="-Long managerId" style="text;strokeColor=none;fillColor=none;align=left;verticalAlign=top;spacingLeft=4;spacingRight=4;overflow=hidden;rotatable=0;points=[[0,0.5],[1,0.5]];portConstraint=eastwest;" vertex="1" parent="RO0mTksg29DLi3yOSm6j-671">
          <mxGeometry y="58.473684210526315" width="248" height="29" as="geometry" />
        </mxCell>
        <mxCell id="RO0mTksg29DLi3yOSm6j-674" value="-String name" style="text;strokeColor=none;fillColor=none;align=left;verticalAlign=top;spacingLeft=4;spacingRight=4;overflow=hidden;rotatable=0;points=[[0,0.5],[1,0.5]];portConstraint=eastwest;" vertex="1" parent="RO0mTksg29DLi3yOSm6j-671">
          <mxGeometry y="87.47368421052632" width="248" height="29" as="geometry" />
        </mxCell>
        <mxCell id="RO0mTksg29DLi3yOSm6j-675" value="-String address" style="text;strokeColor=none;fillColor=none;align=left;verticalAlign=top;spacingLeft=4;spacingRight=4;overflow=hidden;rotatable=0;points=[[0,0.5],[1,0.5]];portConstraint=eastwest;" vertex="1" parent="RO0mTksg29DLi3yOSm6j-671">
          <mxGeometry y="116.47368421052632" width="248" height="29" as="geometry" />
        </mxCell>
        <mxCell id="RO0mTksg29DLi3yOSm6j-676" value="-String cuisine" style="text;strokeColor=none;fillColor=none;align=left;verticalAlign=top;spacingLeft=4;spacingRight=4;overflow=hidden;rotatable=0;points=[[0,0.5],[1,0.5]];portConstraint=eastwest;" vertex="1" parent="RO0mTksg29DLi3yOSm6j-671">
          <mxGeometry y="145.4736842105263" width="248" height="29" as="geometry" />
        </mxCell>
        <mxCell id="RO0mTksg29DLi3yOSm6j-677" value="-Integer costRating" style="text;strokeColor=none;fillColor=none;align=left;verticalAlign=top;spacingLeft=4;spacingRight=4;overflow=hidden;rotatable=0;points=[[0,0.5],[1,0.5]];portConstraint=eastwest;" vertex="1" parent="RO0mTksg29DLi3yOSm6j-671">
          <mxGeometry y="174.4736842105263" width="248" height="29" as="geometry" />
        </mxCell>
        <mxCell id="RO0mTksg29DLi3yOSm6j-678" value="-Map&lt;String,String&gt; hours" style="text;strokeColor=none;fillColor=none;align=left;verticalAlign=top;spacingLeft=4;spacingRight=4;overflow=hidden;rotatable=0;points=[[0,0.5],[1,0.5]];portConstraint=eastwest;" vertex="1" parent="RO0mTksg29DLi3yOSm6j-671">
          <mxGeometry y="203.4736842105263" width="248" height="29" as="geometry" />
        </mxCell>
        <mxCell id="RO0mTksg29DLi3yOSm6j-679" value="-Boolean isApproved" style="text;strokeColor=none;fillColor=none;align=left;verticalAlign=top;spacingLeft=4;spacingRight=4;overflow=hidden;rotatable=0;points=[[0,0.5],[1,0.5]];portConstraint=eastwest;" vertex="1" parent="RO0mTksg29DLi3yOSm6j-671">
          <mxGeometry y="232.4736842105263" width="248" height="29" as="geometry" />
        </mxCell>
        <mxCell id="RO0mTksg29DLi3yOSm6j-680" style="line;strokeWidth=1;fillColor=none;align=left;verticalAlign=middle;spacingTop=-1;spacingLeft=3;spacingRight=3;rotatable=0;labelPosition=right;points=[];portConstraint=eastwest;strokeColor=inherit;" vertex="1" parent="RO0mTksg29DLi3yOSm6j-671">
          <mxGeometry y="261.4736842105263" width="248" height="15" as="geometry" />
        </mxCell>
        <mxCell id="RO0mTksg29DLi3yOSm6j-681" value="Booking" style="swimlane;fontStyle=1;align=center;verticalAlign=top;childLayout=stackLayout;horizontal=1;startSize=29.473684210526315;horizontalStack=0;resizeParent=1;resizeParentMax=0;resizeLast=0;collapsible=0;marginBottom=0;" vertex="1" parent="1">
          <mxGeometry x="1523" y="20" width="185" height="276.4736842105263" as="geometry" />
        </mxCell>
        <mxCell id="RO0mTksg29DLi3yOSm6j-682" value="-Long id" style="text;strokeColor=none;fillColor=none;align=left;verticalAlign=top;spacingLeft=4;spacingRight=4;overflow=hidden;rotatable=0;points=[[0,0.5],[1,0.5]];portConstraint=eastwest;" vertex="1" parent="RO0mTksg29DLi3yOSm6j-681">
          <mxGeometry y="29.473684210526315" width="185" height="29" as="geometry" />
        </mxCell>
        <mxCell id="RO0mTksg29DLi3yOSm6j-683" value="-Long userId" style="text;strokeColor=none;fillColor=none;align=left;verticalAlign=top;spacingLeft=4;spacingRight=4;overflow=hidden;rotatable=0;points=[[0,0.5],[1,0.5]];portConstraint=eastwest;" vertex="1" parent="RO0mTksg29DLi3yOSm6j-681">
          <mxGeometry y="58.473684210526315" width="185" height="29" as="geometry" />
        </mxCell>
        <mxCell id="RO0mTksg29DLi3yOSm6j-684" value="-Long restaurantId" style="text;strokeColor=none;fillColor=none;align=left;verticalAlign=top;spacingLeft=4;spacingRight=4;overflow=hidden;rotatable=0;points=[[0,0.5],[1,0.5]];portConstraint=eastwest;" vertex="1" parent="RO0mTksg29DLi3yOSm6j-681">
          <mxGeometry y="87.47368421052632" width="185" height="29" as="geometry" />
        </mxCell>
        <mxCell id="RO0mTksg29DLi3yOSm6j-685" value="-Long tableId" style="text;strokeColor=none;fillColor=none;align=left;verticalAlign=top;spacingLeft=4;spacingRight=4;overflow=hidden;rotatable=0;points=[[0,0.5],[1,0.5]];portConstraint=eastwest;" vertex="1" parent="RO0mTksg29DLi3yOSm6j-681">
          <mxGeometry y="116.47368421052632" width="185" height="29" as="geometry" />
        </mxCell>
        <mxCell id="RO0mTksg29DLi3yOSm6j-686" value="-LocalDate date" style="text;strokeColor=none;fillColor=none;align=left;verticalAlign=top;spacingLeft=4;spacingRight=4;overflow=hidden;rotatable=0;points=[[0,0.5],[1,0.5]];portConstraint=eastwest;" vertex="1" parent="RO0mTksg29DLi3yOSm6j-681">
          <mxGeometry y="145.4736842105263" width="185" height="29" as="geometry" />
        </mxCell>
        <mxCell id="RO0mTksg29DLi3yOSm6j-687" value="-LocalTime time" style="text;strokeColor=none;fillColor=none;align=left;verticalAlign=top;spacingLeft=4;spacingRight=4;overflow=hidden;rotatable=0;points=[[0,0.5],[1,0.5]];portConstraint=eastwest;" vertex="1" parent="RO0mTksg29DLi3yOSm6j-681">
          <mxGeometry y="174.4736842105263" width="185" height="29" as="geometry" />
        </mxCell>
        <mxCell id="RO0mTksg29DLi3yOSm6j-688" value="-Integer partySize" style="text;strokeColor=none;fillColor=none;align=left;verticalAlign=top;spacingLeft=4;spacingRight=4;overflow=hidden;rotatable=0;points=[[0,0.5],[1,0.5]];portConstraint=eastwest;" vertex="1" parent="RO0mTksg29DLi3yOSm6j-681">
          <mxGeometry y="203.4736842105263" width="185" height="29" as="geometry" />
        </mxCell>
        <mxCell id="RO0mTksg29DLi3yOSm6j-689" value="-String status" style="text;strokeColor=none;fillColor=none;align=left;verticalAlign=top;spacingLeft=4;spacingRight=4;overflow=hidden;rotatable=0;points=[[0,0.5],[1,0.5]];portConstraint=eastwest;" vertex="1" parent="RO0mTksg29DLi3yOSm6j-681">
          <mxGeometry y="232.4736842105263" width="185" height="29" as="geometry" />
        </mxCell>
        <mxCell id="RO0mTksg29DLi3yOSm6j-690" style="line;strokeWidth=1;fillColor=none;align=left;verticalAlign=middle;spacingTop=-1;spacingLeft=3;spacingRight=3;rotatable=0;labelPosition=right;points=[];portConstraint=eastwest;strokeColor=inherit;" vertex="1" parent="RO0mTksg29DLi3yOSm6j-681">
          <mxGeometry y="261.4736842105263" width="185" height="15" as="geometry" />
        </mxCell>
        <mxCell id="RO0mTksg29DLi3yOSm6j-691" value="Review" style="swimlane;fontStyle=1;align=center;verticalAlign=top;childLayout=stackLayout;horizontal=1;startSize=32;horizontalStack=0;resizeParent=1;resizeParentMax=0;resizeLast=0;collapsible=0;marginBottom=0;" vertex="1" parent="1">
          <mxGeometry x="1758" y="56" width="183" height="208" as="geometry" />
        </mxCell>
        <mxCell id="RO0mTksg29DLi3yOSm6j-692" value="-Long id" style="text;strokeColor=none;fillColor=none;align=left;verticalAlign=top;spacingLeft=4;spacingRight=4;overflow=hidden;rotatable=0;points=[[0,0.5],[1,0.5]];portConstraint=eastwest;" vertex="1" parent="RO0mTksg29DLi3yOSm6j-691">
          <mxGeometry y="32" width="183" height="32" as="geometry" />
        </mxCell>
        <mxCell id="RO0mTksg29DLi3yOSm6j-693" value="-Long userId" style="text;strokeColor=none;fillColor=none;align=left;verticalAlign=top;spacingLeft=4;spacingRight=4;overflow=hidden;rotatable=0;points=[[0,0.5],[1,0.5]];portConstraint=eastwest;" vertex="1" parent="RO0mTksg29DLi3yOSm6j-691">
          <mxGeometry y="64" width="183" height="32" as="geometry" />
        </mxCell>
        <mxCell id="RO0mTksg29DLi3yOSm6j-694" value="-Long restaurantId" style="text;strokeColor=none;fillColor=none;align=left;verticalAlign=top;spacingLeft=4;spacingRight=4;overflow=hidden;rotatable=0;points=[[0,0.5],[1,0.5]];portConstraint=eastwest;" vertex="1" parent="RO0mTksg29DLi3yOSm6j-691">
          <mxGeometry y="96" width="183" height="32" as="geometry" />
        </mxCell>
        <mxCell id="RO0mTksg29DLi3yOSm6j-695" value="-Integer rating" style="text;strokeColor=none;fillColor=none;align=left;verticalAlign=top;spacingLeft=4;spacingRight=4;overflow=hidden;rotatable=0;points=[[0,0.5],[1,0.5]];portConstraint=eastwest;" vertex="1" parent="RO0mTksg29DLi3yOSm6j-691">
          <mxGeometry y="128" width="183" height="32" as="geometry" />
        </mxCell>
        <mxCell id="RO0mTksg29DLi3yOSm6j-696" value="-String comment" style="text;strokeColor=none;fillColor=none;align=left;verticalAlign=top;spacingLeft=4;spacingRight=4;overflow=hidden;rotatable=0;points=[[0,0.5],[1,0.5]];portConstraint=eastwest;" vertex="1" parent="RO0mTksg29DLi3yOSm6j-691">
          <mxGeometry y="160" width="183" height="32" as="geometry" />
        </mxCell>
        <mxCell id="RO0mTksg29DLi3yOSm6j-697" style="line;strokeWidth=1;fillColor=none;align=left;verticalAlign=middle;spacingTop=-1;spacingLeft=3;spacingRight=3;rotatable=0;labelPosition=right;points=[];portConstraint=eastwest;strokeColor=inherit;" vertex="1" parent="RO0mTksg29DLi3yOSm6j-691">
          <mxGeometry y="192" width="183" height="16" as="geometry" />
        </mxCell>
        <mxCell id="RO0mTksg29DLi3yOSm6j-698" value="TableAvailability" style="swimlane;fontStyle=1;align=center;verticalAlign=top;childLayout=stackLayout;horizontal=1;startSize=33.45454545454545;horizontalStack=0;resizeParent=1;resizeParentMax=0;resizeLast=0;collapsible=0;marginBottom=0;" vertex="1" parent="1">
          <mxGeometry x="1992" y="68" width="433" height="182.45454545454544" as="geometry" />
        </mxCell>
        <mxCell id="RO0mTksg29DLi3yOSm6j-699" value="-Long id" style="text;strokeColor=none;fillColor=none;align=left;verticalAlign=top;spacingLeft=4;spacingRight=4;overflow=hidden;rotatable=0;points=[[0,0.5],[1,0.5]];portConstraint=eastwest;" vertex="1" parent="RO0mTksg29DLi3yOSm6j-698">
          <mxGeometry y="33.45454545454545" width="433" height="33" as="geometry" />
        </mxCell>
        <mxCell id="RO0mTksg29DLi3yOSm6j-700" value="-Long restaurantId" style="text;strokeColor=none;fillColor=none;align=left;verticalAlign=top;spacingLeft=4;spacingRight=4;overflow=hidden;rotatable=0;points=[[0,0.5],[1,0.5]];portConstraint=eastwest;" vertex="1" parent="RO0mTksg29DLi3yOSm6j-698">
          <mxGeometry y="66.45454545454545" width="433" height="33" as="geometry" />
        </mxCell>
        <mxCell id="RO0mTksg29DLi3yOSm6j-701" value="-Integer size" style="text;strokeColor=none;fillColor=none;align=left;verticalAlign=top;spacingLeft=4;spacingRight=4;overflow=hidden;rotatable=0;points=[[0,0.5],[1,0.5]];portConstraint=eastwest;" vertex="1" parent="RO0mTksg29DLi3yOSm6j-698">
          <mxGeometry y="99.45454545454545" width="433" height="33" as="geometry" />
        </mxCell>
        <mxCell id="RO0mTksg29DLi3yOSm6j-702" value="-Map&lt;String,List&lt;String&gt;&gt; bookingTimes" style="text;strokeColor=none;fillColor=none;align=left;verticalAlign=top;spacingLeft=4;spacingRight=4;overflow=hidden;rotatable=0;points=[[0,0.5],[1,0.5]];portConstraint=eastwest;" vertex="1" parent="RO0mTksg29DLi3yOSm6j-698">
          <mxGeometry y="132.45454545454544" width="433" height="33" as="geometry" />
        </mxCell>
        <mxCell id="RO0mTksg29DLi3yOSm6j-703" style="line;strokeWidth=1;fillColor=none;align=left;verticalAlign=middle;spacingTop=-1;spacingLeft=3;spacingRight=3;rotatable=0;labelPosition=right;points=[];portConstraint=eastwest;strokeColor=inherit;" vertex="1" parent="RO0mTksg29DLi3yOSm6j-698">
          <mxGeometry y="165.45454545454544" width="433" height="17" as="geometry" />
        </mxCell>
        <mxCell id="RO0mTksg29DLi3yOSm6j-704" value="RestaurantDTO" style="swimlane;fontStyle=1;align=center;verticalAlign=top;childLayout=stackLayout;horizontal=1;startSize=30.11764705882353;horizontalStack=0;resizeParent=1;resizeParentMax=0;resizeLast=0;collapsible=0;marginBottom=0;" vertex="1" parent="1">
          <mxGeometry x="2475" y="32" width="244" height="255.11764705882354" as="geometry" />
        </mxCell>
        <mxCell id="RO0mTksg29DLi3yOSm6j-705" value="+Long id" style="text;strokeColor=none;fillColor=none;align=left;verticalAlign=top;spacingLeft=4;spacingRight=4;overflow=hidden;rotatable=0;points=[[0,0.5],[1,0.5]];portConstraint=eastwest;" vertex="1" parent="RO0mTksg29DLi3yOSm6j-704">
          <mxGeometry y="30.11764705882353" width="244" height="30" as="geometry" />
        </mxCell>
        <mxCell id="RO0mTksg29DLi3yOSm6j-706" value="+String name" style="text;strokeColor=none;fillColor=none;align=left;verticalAlign=top;spacingLeft=4;spacingRight=4;overflow=hidden;rotatable=0;points=[[0,0.5],[1,0.5]];portConstraint=eastwest;" vertex="1" parent="RO0mTksg29DLi3yOSm6j-704">
          <mxGeometry y="60.11764705882353" width="244" height="30" as="geometry" />
        </mxCell>
        <mxCell id="RO0mTksg29DLi3yOSm6j-707" value="+String address" style="text;strokeColor=none;fillColor=none;align=left;verticalAlign=top;spacingLeft=4;spacingRight=4;overflow=hidden;rotatable=0;points=[[0,0.5],[1,0.5]];portConstraint=eastwest;" vertex="1" parent="RO0mTksg29DLi3yOSm6j-704">
          <mxGeometry y="90.11764705882354" width="244" height="30" as="geometry" />
        </mxCell>
        <mxCell id="RO0mTksg29DLi3yOSm6j-708" value="+String cuisine" style="text;strokeColor=none;fillColor=none;align=left;verticalAlign=top;spacingLeft=4;spacingRight=4;overflow=hidden;rotatable=0;points=[[0,0.5],[1,0.5]];portConstraint=eastwest;" vertex="1" parent="RO0mTksg29DLi3yOSm6j-704">
          <mxGeometry y="120.11764705882354" width="244" height="30" as="geometry" />
        </mxCell>
        <mxCell id="RO0mTksg29DLi3yOSm6j-709" value="+Integer costRating" style="text;strokeColor=none;fillColor=none;align=left;verticalAlign=top;spacingLeft=4;spacingRight=4;overflow=hidden;rotatable=0;points=[[0,0.5],[1,0.5]];portConstraint=eastwest;" vertex="1" parent="RO0mTksg29DLi3yOSm6j-704">
          <mxGeometry y="150.11764705882354" width="244" height="30" as="geometry" />
        </mxCell>
        <mxCell id="RO0mTksg29DLi3yOSm6j-710" value="+Map hours" style="text;strokeColor=none;fillColor=none;align=left;verticalAlign=top;spacingLeft=4;spacingRight=4;overflow=hidden;rotatable=0;points=[[0,0.5],[1,0.5]];portConstraint=eastwest;" vertex="1" parent="RO0mTksg29DLi3yOSm6j-704">
          <mxGeometry y="180.11764705882354" width="244" height="30" as="geometry" />
        </mxCell>
        <mxCell id="RO0mTksg29DLi3yOSm6j-711" value="+Double averageRating" style="text;strokeColor=none;fillColor=none;align=left;verticalAlign=top;spacingLeft=4;spacingRight=4;overflow=hidden;rotatable=0;points=[[0,0.5],[1,0.5]];portConstraint=eastwest;" vertex="1" parent="RO0mTksg29DLi3yOSm6j-704">
          <mxGeometry y="210.11764705882354" width="244" height="30" as="geometry" />
        </mxCell>
        <mxCell id="RO0mTksg29DLi3yOSm6j-712" style="line;strokeWidth=1;fillColor=none;align=left;verticalAlign=middle;spacingTop=-1;spacingLeft=3;spacingRight=3;rotatable=0;labelPosition=right;points=[];portConstraint=eastwest;strokeColor=inherit;" vertex="1" parent="RO0mTksg29DLi3yOSm6j-704">
          <mxGeometry y="240.11764705882354" width="244" height="15" as="geometry" />
        </mxCell>
        <mxCell id="RO0mTksg29DLi3yOSm6j-713" value="BookingDTO" style="swimlane;fontStyle=1;align=center;verticalAlign=top;childLayout=stackLayout;horizontal=1;startSize=30.11764705882353;horizontalStack=0;resizeParent=1;resizeParentMax=0;resizeLast=0;collapsible=0;marginBottom=0;" vertex="1" parent="1">
          <mxGeometry x="2769" y="32" width="239" height="255.11764705882354" as="geometry" />
        </mxCell>
        <mxCell id="RO0mTksg29DLi3yOSm6j-714" value="+Long id" style="text;strokeColor=none;fillColor=none;align=left;verticalAlign=top;spacingLeft=4;spacingRight=4;overflow=hidden;rotatable=0;points=[[0,0.5],[1,0.5]];portConstraint=eastwest;" vertex="1" parent="RO0mTksg29DLi3yOSm6j-713">
          <mxGeometry y="30.11764705882353" width="239" height="30" as="geometry" />
        </mxCell>
        <mxCell id="RO0mTksg29DLi3yOSm6j-715" value="+Long restaurantId" style="text;strokeColor=none;fillColor=none;align=left;verticalAlign=top;spacingLeft=4;spacingRight=4;overflow=hidden;rotatable=0;points=[[0,0.5],[1,0.5]];portConstraint=eastwest;" vertex="1" parent="RO0mTksg29DLi3yOSm6j-713">
          <mxGeometry y="60.11764705882353" width="239" height="30" as="geometry" />
        </mxCell>
        <mxCell id="RO0mTksg29DLi3yOSm6j-716" value="+String restaurantName" style="text;strokeColor=none;fillColor=none;align=left;verticalAlign=top;spacingLeft=4;spacingRight=4;overflow=hidden;rotatable=0;points=[[0,0.5],[1,0.5]];portConstraint=eastwest;" vertex="1" parent="RO0mTksg29DLi3yOSm6j-713">
          <mxGeometry y="90.11764705882354" width="239" height="30" as="geometry" />
        </mxCell>
        <mxCell id="RO0mTksg29DLi3yOSm6j-717" value="+LocalDate date" style="text;strokeColor=none;fillColor=none;align=left;verticalAlign=top;spacingLeft=4;spacingRight=4;overflow=hidden;rotatable=0;points=[[0,0.5],[1,0.5]];portConstraint=eastwest;" vertex="1" parent="RO0mTksg29DLi3yOSm6j-713">
          <mxGeometry y="120.11764705882354" width="239" height="30" as="geometry" />
        </mxCell>
        <mxCell id="RO0mTksg29DLi3yOSm6j-718" value="+LocalTime time" style="text;strokeColor=none;fillColor=none;align=left;verticalAlign=top;spacingLeft=4;spacingRight=4;overflow=hidden;rotatable=0;points=[[0,0.5],[1,0.5]];portConstraint=eastwest;" vertex="1" parent="RO0mTksg29DLi3yOSm6j-713">
          <mxGeometry y="150.11764705882354" width="239" height="30" as="geometry" />
        </mxCell>
        <mxCell id="RO0mTksg29DLi3yOSm6j-719" value="+Integer partySize" style="text;strokeColor=none;fillColor=none;align=left;verticalAlign=top;spacingLeft=4;spacingRight=4;overflow=hidden;rotatable=0;points=[[0,0.5],[1,0.5]];portConstraint=eastwest;" vertex="1" parent="RO0mTksg29DLi3yOSm6j-713">
          <mxGeometry y="180.11764705882354" width="239" height="30" as="geometry" />
        </mxCell>
        <mxCell id="RO0mTksg29DLi3yOSm6j-720" value="+String status" style="text;strokeColor=none;fillColor=none;align=left;verticalAlign=top;spacingLeft=4;spacingRight=4;overflow=hidden;rotatable=0;points=[[0,0.5],[1,0.5]];portConstraint=eastwest;" vertex="1" parent="RO0mTksg29DLi3yOSm6j-713">
          <mxGeometry y="210.11764705882354" width="239" height="30" as="geometry" />
        </mxCell>
        <mxCell id="RO0mTksg29DLi3yOSm6j-721" style="line;strokeWidth=1;fillColor=none;align=left;verticalAlign=middle;spacingTop=-1;spacingLeft=3;spacingRight=3;rotatable=0;labelPosition=right;points=[];portConstraint=eastwest;strokeColor=inherit;" vertex="1" parent="RO0mTksg29DLi3yOSm6j-713">
          <mxGeometry y="240.11764705882354" width="239" height="15" as="geometry" />
        </mxCell>
        <mxCell id="RO0mTksg29DLi3yOSm6j-722" value="RestaurantService" style="swimlane;fontStyle=1;align=center;verticalAlign=top;childLayout=stackLayout;horizontal=1;startSize=31.11111111111111;horizontalStack=0;resizeParent=1;resizeParentMax=0;resizeLast=0;collapsible=0;marginBottom=0;" vertex="1" parent="1">
          <mxGeometry x="954" y="765" width="508" height="287.1111111111111" as="geometry" />
        </mxCell>
        <mxCell id="RO0mTksg29DLi3yOSm6j-723" value="-RestaurantRepository repository" style="text;strokeColor=none;fillColor=none;align=left;verticalAlign=top;spacingLeft=4;spacingRight=4;overflow=hidden;rotatable=0;points=[[0,0.5],[1,0.5]];portConstraint=eastwest;" vertex="1" parent="RO0mTksg29DLi3yOSm6j-722">
          <mxGeometry y="31.11111111111111" width="508" height="31" as="geometry" />
        </mxCell>
        <mxCell id="RO0mTksg29DLi3yOSm6j-724" value="-ReviewRepository reviewRepository" style="text;strokeColor=none;fillColor=none;align=left;verticalAlign=top;spacingLeft=4;spacingRight=4;overflow=hidden;rotatable=0;points=[[0,0.5],[1,0.5]];portConstraint=eastwest;" vertex="1" parent="RO0mTksg29DLi3yOSm6j-722">
          <mxGeometry y="62.111111111111114" width="508" height="31" as="geometry" />
        </mxCell>
        <mxCell id="RO0mTksg29DLi3yOSm6j-725" style="line;strokeWidth=1;fillColor=none;align=left;verticalAlign=middle;spacingTop=-1;spacingLeft=3;spacingRight=3;rotatable=0;labelPosition=right;points=[];portConstraint=eastwest;strokeColor=inherit;" vertex="1" parent="RO0mTksg29DLi3yOSm6j-722">
          <mxGeometry y="93.11111111111111" width="508" height="8" as="geometry" />
        </mxCell>
        <mxCell id="RO0mTksg29DLi3yOSm6j-726" value="+findAll() : List&lt;RestaurantDTO&gt;" style="text;strokeColor=none;fillColor=none;align=left;verticalAlign=top;spacingLeft=4;spacingRight=4;overflow=hidden;rotatable=0;points=[[0,0.5],[1,0.5]];portConstraint=eastwest;" vertex="1" parent="RO0mTksg29DLi3yOSm6j-722">
          <mxGeometry y="101.11111111111111" width="508" height="31" as="geometry" />
        </mxCell>
        <mxCell id="RO0mTksg29DLi3yOSm6j-727" value="+findById(Long id) : RestaurantDTO" style="text;strokeColor=none;fillColor=none;align=left;verticalAlign=top;spacingLeft=4;spacingRight=4;overflow=hidden;rotatable=0;points=[[0,0.5],[1,0.5]];portConstraint=eastwest;" vertex="1" parent="RO0mTksg29DLi3yOSm6j-722">
          <mxGeometry y="132.11111111111111" width="508" height="31" as="geometry" />
        </mxCell>
        <mxCell id="RO0mTksg29DLi3yOSm6j-728" value="+search(SearchCriteria criteria) : List&lt;RestaurantDTO&gt;" style="text;strokeColor=none;fillColor=none;align=left;verticalAlign=top;spacingLeft=4;spacingRight=4;overflow=hidden;rotatable=0;points=[[0,0.5],[1,0.5]];portConstraint=eastwest;" vertex="1" parent="RO0mTksg29DLi3yOSm6j-722">
          <mxGeometry y="163.11111111111111" width="508" height="31" as="geometry" />
        </mxCell>
        <mxCell id="RO0mTksg29DLi3yOSm6j-729" value="+save(RestaurantDTO dto) : RestaurantDTO" style="text;strokeColor=none;fillColor=none;align=left;verticalAlign=top;spacingLeft=4;spacingRight=4;overflow=hidden;rotatable=0;points=[[0,0.5],[1,0.5]];portConstraint=eastwest;" vertex="1" parent="RO0mTksg29DLi3yOSm6j-722">
          <mxGeometry y="194.11111111111111" width="508" height="31" as="geometry" />
        </mxCell>
        <mxCell id="RO0mTksg29DLi3yOSm6j-730" value="+update(Long id, RestaurantDTO dto) : RestaurantDTO" style="text;strokeColor=none;fillColor=none;align=left;verticalAlign=top;spacingLeft=4;spacingRight=4;overflow=hidden;rotatable=0;points=[[0,0.5],[1,0.5]];portConstraint=eastwest;" vertex="1" parent="RO0mTksg29DLi3yOSm6j-722">
          <mxGeometry y="225.11111111111111" width="508" height="31" as="geometry" />
        </mxCell>
        <mxCell id="RO0mTksg29DLi3yOSm6j-731" value="+findByManagerId(Long managerId) : List&lt;RestaurantDTO&gt;" style="text;strokeColor=none;fillColor=none;align=left;verticalAlign=top;spacingLeft=4;spacingRight=4;overflow=hidden;rotatable=0;points=[[0,0.5],[1,0.5]];portConstraint=eastwest;" vertex="1" parent="RO0mTksg29DLi3yOSm6j-722">
          <mxGeometry y="256.1111111111111" width="508" height="31" as="geometry" />
        </mxCell>
        <mxCell id="RO0mTksg29DLi3yOSm6j-732" value="BookingService" style="swimlane;fontStyle=1;align=center;verticalAlign=top;childLayout=stackLayout;horizontal=1;startSize=29.818181818181817;horizontalStack=0;resizeParent=1;resizeParentMax=0;resizeLast=0;collapsible=0;marginBottom=0;" vertex="1" parent="1">
          <mxGeometry x="4676" y="741" width="690" height="337.8181818181818" as="geometry" />
        </mxCell>
        <mxCell id="RO0mTksg29DLi3yOSm6j-733" value="-BookingRepository bookingRepository" style="text;strokeColor=none;fillColor=none;align=left;verticalAlign=top;spacingLeft=4;spacingRight=4;overflow=hidden;rotatable=0;points=[[0,0.5],[1,0.5]];portConstraint=eastwest;" vertex="1" parent="RO0mTksg29DLi3yOSm6j-732">
          <mxGeometry y="29.818181818181817" width="690" height="30" as="geometry" />
        </mxCell>
        <mxCell id="RO0mTksg29DLi3yOSm6j-734" value="-TableAvailabilityRepository tableRepository" style="text;strokeColor=none;fillColor=none;align=left;verticalAlign=top;spacingLeft=4;spacingRight=4;overflow=hidden;rotatable=0;points=[[0,0.5],[1,0.5]];portConstraint=eastwest;" vertex="1" parent="RO0mTksg29DLi3yOSm6j-732">
          <mxGeometry y="59.81818181818181" width="690" height="30" as="geometry" />
        </mxCell>
        <mxCell id="RO0mTksg29DLi3yOSm6j-735" value="-NotificationService notificationService" style="text;strokeColor=none;fillColor=none;align=left;verticalAlign=top;spacingLeft=4;spacingRight=4;overflow=hidden;rotatable=0;points=[[0,0.5],[1,0.5]];portConstraint=eastwest;" vertex="1" parent="RO0mTksg29DLi3yOSm6j-732">
          <mxGeometry y="89.81818181818181" width="690" height="30" as="geometry" />
        </mxCell>
        <mxCell id="RO0mTksg29DLi3yOSm6j-736" style="line;strokeWidth=1;fillColor=none;align=left;verticalAlign=middle;spacingTop=-1;spacingLeft=3;spacingRight=3;rotatable=0;labelPosition=right;points=[];portConstraint=eastwest;strokeColor=inherit;" vertex="1" parent="RO0mTksg29DLi3yOSm6j-732">
          <mxGeometry y="119.81818181818181" width="690" height="8" as="geometry" />
        </mxCell>
        <mxCell id="RO0mTksg29DLi3yOSm6j-737" value="+findById(Long id) : BookingDTO" style="text;strokeColor=none;fillColor=none;align=left;verticalAlign=top;spacingLeft=4;spacingRight=4;overflow=hidden;rotatable=0;points=[[0,0.5],[1,0.5]];portConstraint=eastwest;" vertex="1" parent="RO0mTksg29DLi3yOSm6j-732">
          <mxGeometry y="127.81818181818181" width="690" height="30" as="geometry" />
        </mxCell>
        <mxCell id="RO0mTksg29DLi3yOSm6j-738" value="+findByUserId(Long userId) : List&lt;BookingDTO&gt;" style="text;strokeColor=none;fillColor=none;align=left;verticalAlign=top;spacingLeft=4;spacingRight=4;overflow=hidden;rotatable=0;points=[[0,0.5],[1,0.5]];portConstraint=eastwest;" vertex="1" parent="RO0mTksg29DLi3yOSm6j-732">
          <mxGeometry y="157.8181818181818" width="690" height="30" as="geometry" />
        </mxCell>
        <mxCell id="RO0mTksg29DLi3yOSm6j-739" value="+findByRestaurantId(Long restaurantId) : List&lt;BookingDTO&gt;" style="text;strokeColor=none;fillColor=none;align=left;verticalAlign=top;spacingLeft=4;spacingRight=4;overflow=hidden;rotatable=0;points=[[0,0.5],[1,0.5]];portConstraint=eastwest;" vertex="1" parent="RO0mTksg29DLi3yOSm6j-732">
          <mxGeometry y="187.8181818181818" width="690" height="30" as="geometry" />
        </mxCell>
        <mxCell id="RO0mTksg29DLi3yOSm6j-740" value="+create(BookingDTO dto) : BookingDTO" style="text;strokeColor=none;fillColor=none;align=left;verticalAlign=top;spacingLeft=4;spacingRight=4;overflow=hidden;rotatable=0;points=[[0,0.5],[1,0.5]];portConstraint=eastwest;" vertex="1" parent="RO0mTksg29DLi3yOSm6j-732">
          <mxGeometry y="217.8181818181818" width="690" height="30" as="geometry" />
        </mxCell>
        <mxCell id="RO0mTksg29DLi3yOSm6j-741" value="+updateStatus(Long id, String status) : BookingDTO" style="text;strokeColor=none;fillColor=none;align=left;verticalAlign=top;spacingLeft=4;spacingRight=4;overflow=hidden;rotatable=0;points=[[0,0.5],[1,0.5]];portConstraint=eastwest;" vertex="1" parent="RO0mTksg29DLi3yOSm6j-732">
          <mxGeometry y="247.8181818181818" width="690" height="30" as="geometry" />
        </mxCell>
        <mxCell id="RO0mTksg29DLi3yOSm6j-742" value="+cancel(Long id) : void" style="text;strokeColor=none;fillColor=none;align=left;verticalAlign=top;spacingLeft=4;spacingRight=4;overflow=hidden;rotatable=0;points=[[0,0.5],[1,0.5]];portConstraint=eastwest;" vertex="1" parent="RO0mTksg29DLi3yOSm6j-732">
          <mxGeometry y="277.8181818181818" width="690" height="30" as="geometry" />
        </mxCell>
        <mxCell id="RO0mTksg29DLi3yOSm6j-743" value="+getAvailableTimes(Long restaurantId, LocalDate date, Integer size) : List&lt;TimeSlot&gt;" style="text;strokeColor=none;fillColor=none;align=left;verticalAlign=top;spacingLeft=4;spacingRight=4;overflow=hidden;rotatable=0;points=[[0,0.5],[1,0.5]];portConstraint=eastwest;" vertex="1" parent="RO0mTksg29DLi3yOSm6j-732">
          <mxGeometry y="307.8181818181818" width="690" height="30" as="geometry" />
        </mxCell>
        <mxCell id="RO0mTksg29DLi3yOSm6j-744" value="UserService" style="swimlane;fontStyle=1;align=center;verticalAlign=top;childLayout=stackLayout;horizontal=1;startSize=33.142857142857146;horizontalStack=0;resizeParent=1;resizeParentMax=0;resizeLast=0;collapsible=0;marginBottom=0;" vertex="1" parent="1">
          <mxGeometry x="3528" y="789" width="367" height="239.14285714285714" as="geometry" />
        </mxCell>
        <mxCell id="RO0mTksg29DLi3yOSm6j-745" value="-UserRepository repository" style="text;strokeColor=none;fillColor=none;align=left;verticalAlign=top;spacingLeft=4;spacingRight=4;overflow=hidden;rotatable=0;points=[[0,0.5],[1,0.5]];portConstraint=eastwest;" vertex="1" parent="RO0mTksg29DLi3yOSm6j-744">
          <mxGeometry y="33.142857142857146" width="367" height="33" as="geometry" />
        </mxCell>
        <mxCell id="RO0mTksg29DLi3yOSm6j-746" value="-PasswordEncoder passwordEncoder" style="text;strokeColor=none;fillColor=none;align=left;verticalAlign=top;spacingLeft=4;spacingRight=4;overflow=hidden;rotatable=0;points=[[0,0.5],[1,0.5]];portConstraint=eastwest;" vertex="1" parent="RO0mTksg29DLi3yOSm6j-744">
          <mxGeometry y="66.14285714285714" width="367" height="33" as="geometry" />
        </mxCell>
        <mxCell id="RO0mTksg29DLi3yOSm6j-747" style="line;strokeWidth=1;fillColor=none;align=left;verticalAlign=middle;spacingTop=-1;spacingLeft=3;spacingRight=3;rotatable=0;labelPosition=right;points=[];portConstraint=eastwest;strokeColor=inherit;" vertex="1" parent="RO0mTksg29DLi3yOSm6j-744">
          <mxGeometry y="99.14285714285714" width="367" height="8" as="geometry" />
        </mxCell>
        <mxCell id="RO0mTksg29DLi3yOSm6j-748" value="+findById(Long id) : UserDTO" style="text;strokeColor=none;fillColor=none;align=left;verticalAlign=top;spacingLeft=4;spacingRight=4;overflow=hidden;rotatable=0;points=[[0,0.5],[1,0.5]];portConstraint=eastwest;" vertex="1" parent="RO0mTksg29DLi3yOSm6j-744">
          <mxGeometry y="107.14285714285714" width="367" height="33" as="geometry" />
        </mxCell>
        <mxCell id="RO0mTksg29DLi3yOSm6j-749" value="+findByEmail(String email) : UserDTO" style="text;strokeColor=none;fillColor=none;align=left;verticalAlign=top;spacingLeft=4;spacingRight=4;overflow=hidden;rotatable=0;points=[[0,0.5],[1,0.5]];portConstraint=eastwest;" vertex="1" parent="RO0mTksg29DLi3yOSm6j-744">
          <mxGeometry y="140.14285714285714" width="367" height="33" as="geometry" />
        </mxCell>
        <mxCell id="RO0mTksg29DLi3yOSm6j-750" value="+create(UserDTO dto) : UserDTO" style="text;strokeColor=none;fillColor=none;align=left;verticalAlign=top;spacingLeft=4;spacingRight=4;overflow=hidden;rotatable=0;points=[[0,0.5],[1,0.5]];portConstraint=eastwest;" vertex="1" parent="RO0mTksg29DLi3yOSm6j-744">
          <mxGeometry y="173.14285714285714" width="367" height="33" as="geometry" />
        </mxCell>
        <mxCell id="RO0mTksg29DLi3yOSm6j-751" value="+update(Long id, UserDTO dto) : UserDTO" style="text;strokeColor=none;fillColor=none;align=left;verticalAlign=top;spacingLeft=4;spacingRight=4;overflow=hidden;rotatable=0;points=[[0,0.5],[1,0.5]];portConstraint=eastwest;" vertex="1" parent="RO0mTksg29DLi3yOSm6j-744">
          <mxGeometry y="206.14285714285714" width="367" height="33" as="geometry" />
        </mxCell>
        <mxCell id="RO0mTksg29DLi3yOSm6j-752" value="AuthService" style="swimlane;fontStyle=1;align=center;verticalAlign=top;childLayout=stackLayout;horizontal=1;startSize=33.142857142857146;horizontalStack=0;resizeParent=1;resizeParentMax=0;resizeLast=0;collapsible=0;marginBottom=0;" vertex="1" parent="1">
          <mxGeometry x="4158" y="789" width="448" height="239.14285714285714" as="geometry" />
        </mxCell>
        <mxCell id="RO0mTksg29DLi3yOSm6j-753" value="-UserRepository repository" style="text;strokeColor=none;fillColor=none;align=left;verticalAlign=top;spacingLeft=4;spacingRight=4;overflow=hidden;rotatable=0;points=[[0,0.5],[1,0.5]];portConstraint=eastwest;" vertex="1" parent="RO0mTksg29DLi3yOSm6j-752">
          <mxGeometry y="33.142857142857146" width="448" height="33" as="geometry" />
        </mxCell>
        <mxCell id="RO0mTksg29DLi3yOSm6j-754" value="-PasswordEncoder passwordEncoder" style="text;strokeColor=none;fillColor=none;align=left;verticalAlign=top;spacingLeft=4;spacingRight=4;overflow=hidden;rotatable=0;points=[[0,0.5],[1,0.5]];portConstraint=eastwest;" vertex="1" parent="RO0mTksg29DLi3yOSm6j-752">
          <mxGeometry y="66.14285714285714" width="448" height="33" as="geometry" />
        </mxCell>
        <mxCell id="RO0mTksg29DLi3yOSm6j-755" value="-JwtTokenProvider tokenProvider" style="text;strokeColor=none;fillColor=none;align=left;verticalAlign=top;spacingLeft=4;spacingRight=4;overflow=hidden;rotatable=0;points=[[0,0.5],[1,0.5]];portConstraint=eastwest;" vertex="1" parent="RO0mTksg29DLi3yOSm6j-752">
          <mxGeometry y="99.14285714285714" width="448" height="33" as="geometry" />
        </mxCell>
        <mxCell id="RO0mTksg29DLi3yOSm6j-756" style="line;strokeWidth=1;fillColor=none;align=left;verticalAlign=middle;spacingTop=-1;spacingLeft=3;spacingRight=3;rotatable=0;labelPosition=right;points=[];portConstraint=eastwest;strokeColor=inherit;" vertex="1" parent="RO0mTksg29DLi3yOSm6j-752">
          <mxGeometry y="132.14285714285714" width="448" height="8" as="geometry" />
        </mxCell>
        <mxCell id="RO0mTksg29DLi3yOSm6j-757" value="+authenticate(String email, String password) : String" style="text;strokeColor=none;fillColor=none;align=left;verticalAlign=top;spacingLeft=4;spacingRight=4;overflow=hidden;rotatable=0;points=[[0,0.5],[1,0.5]];portConstraint=eastwest;" vertex="1" parent="RO0mTksg29DLi3yOSm6j-752">
          <mxGeometry y="140.14285714285714" width="448" height="33" as="geometry" />
        </mxCell>
        <mxCell id="RO0mTksg29DLi3yOSm6j-758" value="+validateToken(String token) : boolean" style="text;strokeColor=none;fillColor=none;align=left;verticalAlign=top;spacingLeft=4;spacingRight=4;overflow=hidden;rotatable=0;points=[[0,0.5],[1,0.5]];portConstraint=eastwest;" vertex="1" parent="RO0mTksg29DLi3yOSm6j-752">
          <mxGeometry y="173.14285714285714" width="448" height="33" as="geometry" />
        </mxCell>
        <mxCell id="RO0mTksg29DLi3yOSm6j-759" value="+getUserIdFromToken(String token) : Long" style="text;strokeColor=none;fillColor=none;align=left;verticalAlign=top;spacingLeft=4;spacingRight=4;overflow=hidden;rotatable=0;points=[[0,0.5],[1,0.5]];portConstraint=eastwest;" vertex="1" parent="RO0mTksg29DLi3yOSm6j-752">
          <mxGeometry y="206.14285714285714" width="448" height="33" as="geometry" />
        </mxCell>
        <mxCell id="RO0mTksg29DLi3yOSm6j-760" value="&lt;&lt;interface&gt;&gt;&#xa;JpaRepository&lt;T,ID&gt;" style="swimlane;fontStyle=1;align=center;verticalAlign=top;childLayout=stackLayout;horizontal=1;startSize=53.5;horizontalStack=0;resizeParent=1;resizeParentMax=0;resizeLast=0;collapsible=0;marginBottom=0;" vertex="1" parent="1">
          <mxGeometry x="2543" y="798" width="315" height="205.5" as="geometry" />
        </mxCell>
        <mxCell id="RO0mTksg29DLi3yOSm6j-761" style="line;strokeWidth=1;fillColor=none;align=left;verticalAlign=middle;spacingTop=-1;spacingLeft=3;spacingRight=3;rotatable=0;labelPosition=right;points=[];portConstraint=eastwest;strokeColor=inherit;" vertex="1" parent="RO0mTksg29DLi3yOSm6j-760">
          <mxGeometry y="53.5" width="315" height="8" as="geometry" />
        </mxCell>
        <mxCell id="RO0mTksg29DLi3yOSm6j-762" value="+findById(ID id) : Optional&lt;T&gt;" style="text;strokeColor=none;fillColor=none;align=left;verticalAlign=top;spacingLeft=4;spacingRight=4;overflow=hidden;rotatable=0;points=[[0,0.5],[1,0.5]];portConstraint=eastwest;" vertex="1" parent="RO0mTksg29DLi3yOSm6j-760">
          <mxGeometry y="61.5" width="315" height="36" as="geometry" />
        </mxCell>
        <mxCell id="RO0mTksg29DLi3yOSm6j-763" value="+findAll() : List&lt;T&gt;" style="text;strokeColor=none;fillColor=none;align=left;verticalAlign=top;spacingLeft=4;spacingRight=4;overflow=hidden;rotatable=0;points=[[0,0.5],[1,0.5]];portConstraint=eastwest;" vertex="1" parent="RO0mTksg29DLi3yOSm6j-760">
          <mxGeometry y="97.5" width="315" height="36" as="geometry" />
        </mxCell>
        <mxCell id="RO0mTksg29DLi3yOSm6j-764" value="+save(T entity) : T" style="text;strokeColor=none;fillColor=none;align=left;verticalAlign=top;spacingLeft=4;spacingRight=4;overflow=hidden;rotatable=0;points=[[0,0.5],[1,0.5]];portConstraint=eastwest;" vertex="1" parent="RO0mTksg29DLi3yOSm6j-760">
          <mxGeometry y="133.5" width="315" height="36" as="geometry" />
        </mxCell>
        <mxCell id="RO0mTksg29DLi3yOSm6j-765" value="+deleteById(ID id) : void" style="text;strokeColor=none;fillColor=none;align=left;verticalAlign=top;spacingLeft=4;spacingRight=4;overflow=hidden;rotatable=0;points=[[0,0.5],[1,0.5]];portConstraint=eastwest;" vertex="1" parent="RO0mTksg29DLi3yOSm6j-760">
          <mxGeometry y="169.5" width="315" height="36" as="geometry" />
        </mxCell>
        <mxCell id="RO0mTksg29DLi3yOSm6j-766" value="&lt;&lt;interface&gt;&gt;&#xa;RestaurantRepository" style="swimlane;fontStyle=1;align=center;verticalAlign=top;childLayout=stackLayout;horizontal=1;startSize=62.25;horizontalStack=0;resizeParent=1;resizeParentMax=0;resizeLast=0;collapsible=0;marginBottom=0;" vertex="1" parent="1">
          <mxGeometry x="1527" y="1207" width="591" height="154.25" as="geometry" />
        </mxCell>
        <mxCell id="RO0mTksg29DLi3yOSm6j-767" style="line;strokeWidth=1;fillColor=none;align=left;verticalAlign=middle;spacingTop=-1;spacingLeft=3;spacingRight=3;rotatable=0;labelPosition=right;points=[];portConstraint=eastwest;strokeColor=inherit;" vertex="1" parent="RO0mTksg29DLi3yOSm6j-766">
          <mxGeometry y="62.25" width="591" height="8" as="geometry" />
        </mxCell>
        <mxCell id="RO0mTksg29DLi3yOSm6j-768" value="+findByManagerId(Long managerId) : List&lt;Restaurant&gt;" style="text;strokeColor=none;fillColor=none;align=left;verticalAlign=top;spacingLeft=4;spacingRight=4;overflow=hidden;rotatable=0;points=[[0,0.5],[1,0.5]];portConstraint=eastwest;" vertex="1" parent="RO0mTksg29DLi3yOSm6j-766">
          <mxGeometry y="70.25" width="591" height="42" as="geometry" />
        </mxCell>
        <mxCell id="RO0mTksg29DLi3yOSm6j-769" value="+findByCuisineAndCity(String cuisine, String city) : List&lt;Restaurant&gt;" style="text;strokeColor=none;fillColor=none;align=left;verticalAlign=top;spacingLeft=4;spacingRight=4;overflow=hidden;rotatable=0;points=[[0,0.5],[1,0.5]];portConstraint=eastwest;" vertex="1" parent="RO0mTksg29DLi3yOSm6j-766">
          <mxGeometry y="112.25" width="591" height="42" as="geometry" />
        </mxCell>
        <mxCell id="RO0mTksg29DLi3yOSm6j-770" value="&lt;&lt;interface&gt;&gt;&#xa;BookingRepository" style="swimlane;fontStyle=1;align=center;verticalAlign=top;childLayout=stackLayout;horizontal=1;startSize=62.25;horizontalStack=0;resizeParent=1;resizeParentMax=0;resizeLast=0;collapsible=0;marginBottom=0;" vertex="1" parent="1">
          <mxGeometry x="2366" y="1207" width="668" height="154.25" as="geometry" />
        </mxCell>
        <mxCell id="RO0mTksg29DLi3yOSm6j-771" style="line;strokeWidth=1;fillColor=none;align=left;verticalAlign=middle;spacingTop=-1;spacingLeft=3;spacingRight=3;rotatable=0;labelPosition=right;points=[];portConstraint=eastwest;strokeColor=inherit;" vertex="1" parent="RO0mTksg29DLi3yOSm6j-770">
          <mxGeometry y="62.25" width="668" height="8" as="geometry" />
        </mxCell>
        <mxCell id="RO0mTksg29DLi3yOSm6j-772" value="+findByUserId(Long userId) : List&lt;Booking&gt;" style="text;strokeColor=none;fillColor=none;align=left;verticalAlign=top;spacingLeft=4;spacingRight=4;overflow=hidden;rotatable=0;points=[[0,0.5],[1,0.5]];portConstraint=eastwest;" vertex="1" parent="RO0mTksg29DLi3yOSm6j-770">
          <mxGeometry y="70.25" width="668" height="42" as="geometry" />
        </mxCell>
        <mxCell id="RO0mTksg29DLi3yOSm6j-773" value="+findByRestaurantIdAndDate(Long restaurantId, LocalDate date) : List&lt;Booking&gt;" style="text;strokeColor=none;fillColor=none;align=left;verticalAlign=top;spacingLeft=4;spacingRight=4;overflow=hidden;rotatable=0;points=[[0,0.5],[1,0.5]];portConstraint=eastwest;" vertex="1" parent="RO0mTksg29DLi3yOSm6j-770">
          <mxGeometry y="112.25" width="668" height="42" as="geometry" />
        </mxCell>
        <mxCell id="RO0mTksg29DLi3yOSm6j-774" value="&lt;&lt;interface&gt;&gt;&#xa;UserRepository" style="swimlane;fontStyle=1;align=center;verticalAlign=top;childLayout=stackLayout;horizontal=1;startSize=71;horizontalStack=0;resizeParent=1;resizeParentMax=0;resizeLast=0;collapsible=0;marginBottom=0;" vertex="1" parent="1">
          <mxGeometry x="3506" y="1219" width="397" height="126" as="geometry" />
        </mxCell>
        <mxCell id="RO0mTksg29DLi3yOSm6j-775" style="line;strokeWidth=1;fillColor=none;align=left;verticalAlign=middle;spacingTop=-1;spacingLeft=3;spacingRight=3;rotatable=0;labelPosition=right;points=[];portConstraint=eastwest;strokeColor=inherit;" vertex="1" parent="RO0mTksg29DLi3yOSm6j-774">
          <mxGeometry y="71" width="397" height="8" as="geometry" />
        </mxCell>
        <mxCell id="RO0mTksg29DLi3yOSm6j-776" value="+findByEmail(String email) : Optional&lt;User&gt;" style="text;strokeColor=none;fillColor=none;align=left;verticalAlign=top;spacingLeft=4;spacingRight=4;overflow=hidden;rotatable=0;points=[[0,0.5],[1,0.5]];portConstraint=eastwest;" vertex="1" parent="RO0mTksg29DLi3yOSm6j-774">
          <mxGeometry y="79" width="397" height="47" as="geometry" />
        </mxCell>
        <mxCell id="RO0mTksg29DLi3yOSm6j-777" value="NotificationService" style="swimlane;fontStyle=1;align=center;verticalAlign=top;childLayout=stackLayout;horizontal=1;startSize=36.888888888888886;horizontalStack=0;resizeParent=1;resizeParentMax=0;resizeLast=0;collapsible=0;marginBottom=0;" vertex="1" parent="1">
          <mxGeometry x="4291" y="1207" width="562" height="155.88888888888889" as="geometry" />
        </mxCell>
        <mxCell id="RO0mTksg29DLi3yOSm6j-778" style="line;strokeWidth=1;fillColor=none;align=left;verticalAlign=middle;spacingTop=-1;spacingLeft=3;spacingRight=3;rotatable=0;labelPosition=right;points=[];portConstraint=eastwest;strokeColor=inherit;" vertex="1" parent="RO0mTksg29DLi3yOSm6j-777">
          <mxGeometry y="36.888888888888886" width="562" height="8" as="geometry" />
        </mxCell>
        <mxCell id="RO0mTksg29DLi3yOSm6j-779" value="#prepareMessage(String template, Map params) : String" style="text;strokeColor=none;fillColor=none;align=left;verticalAlign=top;spacingLeft=4;spacingRight=4;overflow=hidden;rotatable=0;points=[[0,0.5],[1,0.5]];portConstraint=eastwest;" vertex="1" parent="RO0mTksg29DLi3yOSm6j-777">
          <mxGeometry y="44.888888888888886" width="562" height="37" as="geometry" />
        </mxCell>
        <mxCell id="RO0mTksg29DLi3yOSm6j-780" value="+sendNotification(User user, String template, Map params) : void" style="text;strokeColor=none;fillColor=none;align=left;verticalAlign=top;spacingLeft=4;spacingRight=4;overflow=hidden;rotatable=0;points=[[0,0.5],[1,0.5]];portConstraint=eastwest;" vertex="1" parent="RO0mTksg29DLi3yOSm6j-777">
          <mxGeometry y="81.88888888888889" width="562" height="37" as="geometry" />
        </mxCell>
        <mxCell id="RO0mTksg29DLi3yOSm6j-781" value="#abstract doSend(User user, String message) : void" style="text;strokeColor=none;fillColor=none;align=left;verticalAlign=top;spacingLeft=4;spacingRight=4;overflow=hidden;rotatable=0;points=[[0,0.5],[1,0.5]];portConstraint=eastwest;" vertex="1" parent="RO0mTksg29DLi3yOSm6j-777">
          <mxGeometry y="118.88888888888889" width="562" height="37" as="geometry" />
        </mxCell>
        <mxCell id="RO0mTksg29DLi3yOSm6j-782" value="EmailNotificationService" style="swimlane;fontStyle=1;align=center;verticalAlign=top;childLayout=stackLayout;horizontal=1;startSize=45.333333333333336;horizontalStack=0;resizeParent=1;resizeParentMax=0;resizeLast=0;collapsible=0;marginBottom=0;" vertex="1" parent="1">
          <mxGeometry x="4134" y="1510" width="415" height="143.33333333333334" as="geometry" />
        </mxCell>
        <mxCell id="RO0mTksg29DLi3yOSm6j-783" value="-JavaMailSender mailSender" style="text;strokeColor=none;fillColor=none;align=left;verticalAlign=top;spacingLeft=4;spacingRight=4;overflow=hidden;rotatable=0;points=[[0,0.5],[1,0.5]];portConstraint=eastwest;" vertex="1" parent="RO0mTksg29DLi3yOSm6j-782">
          <mxGeometry y="45.333333333333336" width="415" height="45" as="geometry" />
        </mxCell>
        <mxCell id="RO0mTksg29DLi3yOSm6j-784" style="line;strokeWidth=1;fillColor=none;align=left;verticalAlign=middle;spacingTop=-1;spacingLeft=3;spacingRight=3;rotatable=0;labelPosition=right;points=[];portConstraint=eastwest;strokeColor=inherit;" vertex="1" parent="RO0mTksg29DLi3yOSm6j-782">
          <mxGeometry y="90.33333333333334" width="415" height="8" as="geometry" />
        </mxCell>
        <mxCell id="RO0mTksg29DLi3yOSm6j-785" value="#doSend(User user, String message) : void" style="text;strokeColor=none;fillColor=none;align=left;verticalAlign=top;spacingLeft=4;spacingRight=4;overflow=hidden;rotatable=0;points=[[0,0.5],[1,0.5]];portConstraint=eastwest;" vertex="1" parent="RO0mTksg29DLi3yOSm6j-782">
          <mxGeometry y="98.33333333333334" width="415" height="45" as="geometry" />
        </mxCell>
        <mxCell id="RO0mTksg29DLi3yOSm6j-786" value="SMSNotificationService" style="swimlane;fontStyle=1;align=center;verticalAlign=top;childLayout=stackLayout;horizontal=1;startSize=45.333333333333336;horizontalStack=0;resizeParent=1;resizeParentMax=0;resizeLast=0;collapsible=0;marginBottom=0;" vertex="1" parent="1">
          <mxGeometry x="4599" y="1510" width="409" height="143.33333333333334" as="geometry" />
        </mxCell>
        <mxCell id="RO0mTksg29DLi3yOSm6j-787" value="-TwilioClient twilioClient" style="text;strokeColor=none;fillColor=none;align=left;verticalAlign=top;spacingLeft=4;spacingRight=4;overflow=hidden;rotatable=0;points=[[0,0.5],[1,0.5]];portConstraint=eastwest;" vertex="1" parent="RO0mTksg29DLi3yOSm6j-786">
          <mxGeometry y="45.333333333333336" width="409" height="45" as="geometry" />
        </mxCell>
        <mxCell id="RO0mTksg29DLi3yOSm6j-788" style="line;strokeWidth=1;fillColor=none;align=left;verticalAlign=middle;spacingTop=-1;spacingLeft=3;spacingRight=3;rotatable=0;labelPosition=right;points=[];portConstraint=eastwest;strokeColor=inherit;" vertex="1" parent="RO0mTksg29DLi3yOSm6j-786">
          <mxGeometry y="90.33333333333334" width="409" height="8" as="geometry" />
        </mxCell>
        <mxCell id="RO0mTksg29DLi3yOSm6j-789" value="#doSend(User user, String message) : void" style="text;strokeColor=none;fillColor=none;align=left;verticalAlign=top;spacingLeft=4;spacingRight=4;overflow=hidden;rotatable=0;points=[[0,0.5],[1,0.5]];portConstraint=eastwest;" vertex="1" parent="RO0mTksg29DLi3yOSm6j-786">
          <mxGeometry y="98.33333333333334" width="409" height="45" as="geometry" />
        </mxCell>
        <mxCell id="RO0mTksg29DLi3yOSm6j-790" value="JwtTokenProvider" style="swimlane;fontStyle=1;align=center;verticalAlign=top;childLayout=stackLayout;horizontal=1;startSize=31.11111111111111;horizontalStack=0;resizeParent=1;resizeParentMax=0;resizeLast=0;collapsible=0;marginBottom=0;" vertex="1" parent="1">
          <mxGeometry x="4903" y="1150" width="507" height="287.1111111111111" as="geometry" />
        </mxCell>
        <mxCell id="RO0mTksg29DLi3yOSm6j-791" value="-static JwtTokenProvider instance" style="text;strokeColor=none;fillColor=none;align=left;verticalAlign=top;spacingLeft=4;spacingRight=4;overflow=hidden;rotatable=0;points=[[0,0.5],[1,0.5]];portConstraint=eastwest;" vertex="1" parent="RO0mTksg29DLi3yOSm6j-790">
          <mxGeometry y="31.11111111111111" width="507" height="31" as="geometry" />
        </mxCell>
        <mxCell id="RO0mTksg29DLi3yOSm6j-792" value="-String secretKey" style="text;strokeColor=none;fillColor=none;align=left;verticalAlign=top;spacingLeft=4;spacingRight=4;overflow=hidden;rotatable=0;points=[[0,0.5],[1,0.5]];portConstraint=eastwest;" vertex="1" parent="RO0mTksg29DLi3yOSm6j-790">
          <mxGeometry y="62.111111111111114" width="507" height="31" as="geometry" />
        </mxCell>
        <mxCell id="RO0mTksg29DLi3yOSm6j-793" value="-long validityInMilliseconds" style="text;strokeColor=none;fillColor=none;align=left;verticalAlign=top;spacingLeft=4;spacingRight=4;overflow=hidden;rotatable=0;points=[[0,0.5],[1,0.5]];portConstraint=eastwest;" vertex="1" parent="RO0mTksg29DLi3yOSm6j-790">
          <mxGeometry y="93.11111111111111" width="507" height="31" as="geometry" />
        </mxCell>
        <mxCell id="RO0mTksg29DLi3yOSm6j-794" style="line;strokeWidth=1;fillColor=none;align=left;verticalAlign=middle;spacingTop=-1;spacingLeft=3;spacingRight=3;rotatable=0;labelPosition=right;points=[];portConstraint=eastwest;strokeColor=inherit;" vertex="1" parent="RO0mTksg29DLi3yOSm6j-790">
          <mxGeometry y="124.11111111111111" width="507" height="8" as="geometry" />
        </mxCell>
        <mxCell id="RO0mTksg29DLi3yOSm6j-795" value="-JwtTokenProvider()" style="text;strokeColor=none;fillColor=none;align=left;verticalAlign=top;spacingLeft=4;spacingRight=4;overflow=hidden;rotatable=0;points=[[0,0.5],[1,0.5]];portConstraint=eastwest;" vertex="1" parent="RO0mTksg29DLi3yOSm6j-790">
          <mxGeometry y="132.11111111111111" width="507" height="31" as="geometry" />
        </mxCell>
        <mxCell id="RO0mTksg29DLi3yOSm6j-796" value="+static getInstance() : JwtTokenProvider" style="text;strokeColor=none;fillColor=none;align=left;verticalAlign=top;spacingLeft=4;spacingRight=4;overflow=hidden;rotatable=0;points=[[0,0.5],[1,0.5]];portConstraint=eastwest;" vertex="1" parent="RO0mTksg29DLi3yOSm6j-790">
          <mxGeometry y="163.11111111111111" width="507" height="31" as="geometry" />
        </mxCell>
        <mxCell id="RO0mTksg29DLi3yOSm6j-797" value="+createToken(String username, List&lt;String&gt; roles) : String" style="text;strokeColor=none;fillColor=none;align=left;verticalAlign=top;spacingLeft=4;spacingRight=4;overflow=hidden;rotatable=0;points=[[0,0.5],[1,0.5]];portConstraint=eastwest;" vertex="1" parent="RO0mTksg29DLi3yOSm6j-790">
          <mxGeometry y="194.11111111111111" width="507" height="31" as="geometry" />
        </mxCell>
        <mxCell id="RO0mTksg29DLi3yOSm6j-798" value="+getUsername(String token) : String" style="text;strokeColor=none;fillColor=none;align=left;verticalAlign=top;spacingLeft=4;spacingRight=4;overflow=hidden;rotatable=0;points=[[0,0.5],[1,0.5]];portConstraint=eastwest;" vertex="1" parent="RO0mTksg29DLi3yOSm6j-790">
          <mxGeometry y="225.11111111111111" width="507" height="31" as="geometry" />
        </mxCell>
        <mxCell id="RO0mTksg29DLi3yOSm6j-799" value="+validateToken(String token) : boolean" style="text;strokeColor=none;fillColor=none;align=left;verticalAlign=top;spacingLeft=4;spacingRight=4;overflow=hidden;rotatable=0;points=[[0,0.5],[1,0.5]];portConstraint=eastwest;" vertex="1" parent="RO0mTksg29DLi3yOSm6j-790">
          <mxGeometry y="256.1111111111111" width="507" height="31" as="geometry" />
        </mxCell>
        <mxCell id="RO0mTksg29DLi3yOSm6j-800" value="GlobalExceptionHandler" style="swimlane;fontStyle=1;align=center;verticalAlign=top;childLayout=stackLayout;horizontal=1;startSize=36.888888888888886;horizontalStack=0;resizeParent=1;resizeParentMax=0;resizeLast=0;collapsible=0;marginBottom=0;" vertex="1" parent="1">
          <mxGeometry x="2901" y="438" width="733" height="155.88888888888889" as="geometry" />
        </mxCell>
        <mxCell id="RO0mTksg29DLi3yOSm6j-801" style="line;strokeWidth=1;fillColor=none;align=left;verticalAlign=middle;spacingTop=-1;spacingLeft=3;spacingRight=3;rotatable=0;labelPosition=right;points=[];portConstraint=eastwest;strokeColor=inherit;" vertex="1" parent="RO0mTksg29DLi3yOSm6j-800">
          <mxGeometry y="36.888888888888886" width="733" height="8" as="geometry" />
        </mxCell>
        <mxCell id="RO0mTksg29DLi3yOSm6j-802" value="+handleResourceNotFoundException(ResourceNotFoundException ex) : ResponseEntity" style="text;strokeColor=none;fillColor=none;align=left;verticalAlign=top;spacingLeft=4;spacingRight=4;overflow=hidden;rotatable=0;points=[[0,0.5],[1,0.5]];portConstraint=eastwest;" vertex="1" parent="RO0mTksg29DLi3yOSm6j-800">
          <mxGeometry y="44.888888888888886" width="733" height="37" as="geometry" />
        </mxCell>
        <mxCell id="RO0mTksg29DLi3yOSm6j-803" value="+handleValidationExceptions(MethodArgumentNotValidException ex) : ResponseEntity" style="text;strokeColor=none;fillColor=none;align=left;verticalAlign=top;spacingLeft=4;spacingRight=4;overflow=hidden;rotatable=0;points=[[0,0.5],[1,0.5]];portConstraint=eastwest;" vertex="1" parent="RO0mTksg29DLi3yOSm6j-800">
          <mxGeometry y="81.88888888888889" width="733" height="37" as="geometry" />
        </mxCell>
        <mxCell id="RO0mTksg29DLi3yOSm6j-804" value="+handleAuthenticationException(AuthenticationException ex) : ResponseEntity" style="text;strokeColor=none;fillColor=none;align=left;verticalAlign=top;spacingLeft=4;spacingRight=4;overflow=hidden;rotatable=0;points=[[0,0.5],[1,0.5]];portConstraint=eastwest;" vertex="1" parent="RO0mTksg29DLi3yOSm6j-800">
          <mxGeometry y="118.88888888888889" width="733" height="37" as="geometry" />
        </mxCell>
        <mxCell id="RO0mTksg29DLi3yOSm6j-805" value="ReviewService" style="swimlane;fontStyle=1;align=center;verticalAlign=top;childLayout=stackLayout;horizontal=1;startSize=38;horizontalStack=0;resizeParent=1;resizeParentMax=0;resizeLast=0;collapsible=0;marginBottom=0;" vertex="1" parent="1">
          <mxGeometry x="3718" y="483" width="134" height="57" as="geometry" />
        </mxCell>
        <mxCell id="RO0mTksg29DLi3yOSm6j-806" style="line;strokeWidth=1;fillColor=none;align=left;verticalAlign=middle;spacingTop=-1;spacingLeft=3;spacingRight=3;rotatable=0;labelPosition=right;points=[];portConstraint=eastwest;strokeColor=inherit;" vertex="1" parent="RO0mTksg29DLi3yOSm6j-805">
          <mxGeometry y="38" width="134" height="19" as="geometry" />
        </mxCell>
        <mxCell id="RO0mTksg29DLi3yOSm6j-807" value="TableAvailabilityRepository" style="swimlane;fontStyle=1;align=center;verticalAlign=top;childLayout=stackLayout;horizontal=1;startSize=38;horizontalStack=0;resizeParent=1;resizeParentMax=0;resizeLast=0;collapsible=0;marginBottom=0;" vertex="1" parent="1">
          <mxGeometry x="6109" y="1252" width="227" height="57" as="geometry" />
        </mxCell>
        <mxCell id="RO0mTksg29DLi3yOSm6j-808" style="line;strokeWidth=1;fillColor=none;align=left;verticalAlign=middle;spacingTop=-1;spacingLeft=3;spacingRight=3;rotatable=0;labelPosition=right;points=[];portConstraint=eastwest;strokeColor=inherit;" vertex="1" parent="RO0mTksg29DLi3yOSm6j-807">
          <mxGeometry y="38" width="227" height="19" as="geometry" />
        </mxCell>
        <mxCell id="RO0mTksg29DLi3yOSm6j-809" value="Controller Layer (MVC): REST endpoints for restaurant operations" style="align=left;spacingLeft=4;" vertex="1" parent="1">
          <mxGeometry x="415" y="146" width="481" height="36" as="geometry" />
        </mxCell>
        <mxCell id="RO0mTksg29DLi3yOSm6j-810" value="Service Layer: Business logic for restaurants" style="align=left;spacingLeft=4;" vertex="1" parent="1">
          <mxGeometry x="1980" y="507" width="328" height="36" as="geometry" />
        </mxCell>
        <mxCell id="RO0mTksg29DLi3yOSm6j-811" value="Repository Pattern using Spring Data JPA" style="align=left;spacingLeft=4;" vertex="1" parent="1">
          <mxGeometry x="2549" y="507" width="302" height="36" as="geometry" />
        </mxCell>
        <mxCell id="RO0mTksg29DLi3yOSm6j-812" value="Template Method Pattern: Defines notification workflow" style="align=left;spacingLeft=4;" vertex="1" parent="1">
          <mxGeometry x="5540" y="891" width="416" height="36" as="geometry" />
        </mxCell>
        <mxCell id="RO0mTksg29DLi3yOSm6j-813" value="Singleton Pattern: Single instance for JWT operations" style="align=left;spacingLeft=4;" vertex="1" parent="1">
          <mxGeometry x="6006" y="891" width="395" height="36" as="geometry" />
        </mxCell>
        <mxCell id="RO0mTksg29DLi3yOSm6j-814" value="MVC: Centralized exception handling for clean responses" style="align=left;spacingLeft=4;" vertex="1" parent="1">
          <mxGeometry x="3058" y="146" width="420" height="36" as="geometry" />
        </mxCell>
        <mxCell id="RO0mTksg29DLi3yOSm6j-815" value="" style="curved=1;dashed=1;dashPattern=2 3;startArrow=none;endArrow=none;exitX=0.5;exitY=1;entryX=0.5;entryY=0;rounded=0;" edge="1" parent="1" source="RO0mTksg29DLi3yOSm6j-809" target="RO0mTksg29DLi3yOSm6j-629">
          <mxGeometry relative="1" as="geometry">
            <Array as="points" />
          </mxGeometry>
        </mxCell>
        <mxCell id="RO0mTksg29DLi3yOSm6j-816" value="" style="curved=1;dashed=1;dashPattern=2 3;startArrow=none;endArrow=none;exitX=0.5;exitY=0.99;entryX=1;entryY=0.31;rounded=0;" edge="1" parent="1" source="RO0mTksg29DLi3yOSm6j-810" target="RO0mTksg29DLi3yOSm6j-722">
          <mxGeometry relative="1" as="geometry">
            <Array as="points">
              <mxPoint x="2144" y="705" />
            </Array>
          </mxGeometry>
        </mxCell>
        <mxCell id="RO0mTksg29DLi3yOSm6j-817" value="" style="curved=1;dashed=1;dashPattern=2 3;startArrow=none;endArrow=none;exitX=0.5;exitY=0.99;entryX=0.5;entryY=0;rounded=0;" edge="1" parent="1" source="RO0mTksg29DLi3yOSm6j-811" target="RO0mTksg29DLi3yOSm6j-760">
          <mxGeometry relative="1" as="geometry">
            <Array as="points" />
          </mxGeometry>
        </mxCell>
        <mxCell id="RO0mTksg29DLi3yOSm6j-818" value="" style="curved=1;dashed=1;dashPattern=2 3;startArrow=none;endArrow=none;exitX=0.31;exitY=1;entryX=0.74;entryY=0;rounded=0;" edge="1" parent="1" source="RO0mTksg29DLi3yOSm6j-812" target="RO0mTksg29DLi3yOSm6j-777">
          <mxGeometry relative="1" as="geometry">
            <Array as="points">
              <mxPoint x="4846" y="1113" />
            </Array>
          </mxGeometry>
        </mxCell>
        <mxCell id="RO0mTksg29DLi3yOSm6j-819" value="" style="curved=1;dashed=1;dashPattern=2 3;startArrow=none;endArrow=none;exitX=0.45;exitY=1;entryX=1;entryY=0.31;rounded=0;" edge="1" parent="1" source="RO0mTksg29DLi3yOSm6j-813" target="RO0mTksg29DLi3yOSm6j-790">
          <mxGeometry relative="1" as="geometry">
            <Array as="points">
              <mxPoint x="5995" y="1113" />
            </Array>
          </mxGeometry>
        </mxCell>
        <mxCell id="RO0mTksg29DLi3yOSm6j-820" value="" style="curved=1;dashed=1;dashPattern=2 3;startArrow=none;endArrow=none;exitX=0.5;exitY=1;entryX=0.5;entryY=0;rounded=0;" edge="1" parent="1" source="RO0mTksg29DLi3yOSm6j-814" target="RO0mTksg29DLi3yOSm6j-800">
          <mxGeometry relative="1" as="geometry">
            <Array as="points" />
          </mxGeometry>
        </mxCell>
        <mxCell id="RO0mTksg29DLi3yOSm6j-821" value="uses" style="curved=1;startArrow=none;endArrow=open;endSize=12;exitX=0.5;exitY=1;entryX=0;entryY=0.17;rounded=0;" edge="1" parent="1" source="RO0mTksg29DLi3yOSm6j-629" target="RO0mTksg29DLi3yOSm6j-722">
          <mxGeometry relative="1" as="geometry">
            <Array as="points">
              <mxPoint x="655" y="705" />
            </Array>
          </mxGeometry>
        </mxCell>
        <mxCell id="RO0mTksg29DLi3yOSm6j-822" value="uses" style="curved=1;startArrow=none;endArrow=open;endSize=12;exitX=0.5;exitY=1;entryX=0.5;entryY=0;rounded=0;" edge="1" parent="1" source="RO0mTksg29DLi3yOSm6j-638" target="RO0mTksg29DLi3yOSm6j-732">
          <mxGeometry relative="1" as="geometry">
            <Array as="points" />
          </mxGeometry>
        </mxCell>
        <mxCell id="RO0mTksg29DLi3yOSm6j-823" value="uses" style="curved=1;startArrow=none;endArrow=open;endSize=12;exitX=0;exitY=0.93;entryX=0.5;entryY=0;rounded=0;" edge="1" parent="1" source="RO0mTksg29DLi3yOSm6j-648" target="RO0mTksg29DLi3yOSm6j-744">
          <mxGeometry relative="1" as="geometry">
            <Array as="points">
              <mxPoint x="3711" y="705" />
            </Array>
          </mxGeometry>
        </mxCell>
        <mxCell id="RO0mTksg29DLi3yOSm6j-824" value="uses" style="curved=1;startArrow=none;endArrow=open;endSize=12;exitX=0.8;exitY=1;entryX=0.5;entryY=0;rounded=0;" edge="1" parent="1" source="RO0mTksg29DLi3yOSm6j-648" target="RO0mTksg29DLi3yOSm6j-752">
          <mxGeometry relative="1" as="geometry">
            <Array as="points">
              <mxPoint x="4382" y="705" />
            </Array>
          </mxGeometry>
        </mxCell>
        <mxCell id="RO0mTksg29DLi3yOSm6j-825" value="uses" style="curved=1;startArrow=none;endArrow=open;endSize=12;exitX=0.5;exitY=1;entryX=0.5;entryY=-0.01;rounded=0;" edge="1" parent="1" source="RO0mTksg29DLi3yOSm6j-656" target="RO0mTksg29DLi3yOSm6j-805">
          <mxGeometry relative="1" as="geometry">
            <Array as="points" />
          </mxGeometry>
        </mxCell>
        <mxCell id="RO0mTksg29DLi3yOSm6j-826" value="uses" style="curved=1;startArrow=none;endArrow=open;endSize=12;exitX=1;exitY=0.79;entryX=0.5;entryY=0;rounded=0;" edge="1" parent="1" source="RO0mTksg29DLi3yOSm6j-722" target="RO0mTksg29DLi3yOSm6j-766">
          <mxGeometry relative="1" as="geometry">
            <Array as="points">
              <mxPoint x="1823" y="1113" />
            </Array>
          </mxGeometry>
        </mxCell>
        <mxCell id="RO0mTksg29DLi3yOSm6j-827" value="uses" style="curved=1;startArrow=none;endArrow=open;endSize=12;exitX=0;exitY=0.61;entryX=0.83;entryY=0;rounded=0;" edge="1" parent="1" source="RO0mTksg29DLi3yOSm6j-732" target="RO0mTksg29DLi3yOSm6j-770">
          <mxGeometry relative="1" as="geometry">
            <Array as="points">
              <mxPoint x="3156" y="1113" />
            </Array>
          </mxGeometry>
        </mxCell>
        <mxCell id="RO0mTksg29DLi3yOSm6j-828" value="uses" style="curved=1;startArrow=none;endArrow=open;endSize=12;exitX=1;exitY=0.67;entryX=0.5;entryY=-0.01;rounded=0;" edge="1" parent="1" source="RO0mTksg29DLi3yOSm6j-732" target="RO0mTksg29DLi3yOSm6j-807">
          <mxGeometry relative="1" as="geometry">
            <Array as="points">
              <mxPoint x="6222" y="1113" />
            </Array>
          </mxGeometry>
        </mxCell>
        <mxCell id="RO0mTksg29DLi3yOSm6j-829" value="uses" style="curved=1;startArrow=none;endArrow=open;endSize=12;exitX=0;exitY=0.78;entryX=0.24;entryY=0;rounded=0;" edge="1" parent="1" source="RO0mTksg29DLi3yOSm6j-732" target="RO0mTksg29DLi3yOSm6j-777">
          <mxGeometry relative="1" as="geometry">
            <Array as="points">
              <mxPoint x="4271" y="1113" />
            </Array>
          </mxGeometry>
        </mxCell>
        <mxCell id="RO0mTksg29DLi3yOSm6j-830" value="uses" style="curved=1;startArrow=none;endArrow=open;endSize=12;exitX=0.87;exitY=1;entryX=0.75;entryY=0;rounded=0;" edge="1" parent="1" source="RO0mTksg29DLi3yOSm6j-744" target="RO0mTksg29DLi3yOSm6j-774">
          <mxGeometry relative="1" as="geometry">
            <Array as="points">
              <mxPoint x="3942" y="1113" />
            </Array>
          </mxGeometry>
        </mxCell>
        <mxCell id="RO0mTksg29DLi3yOSm6j-831" value="uses" style="curved=1;startArrow=none;endArrow=open;endSize=12;exitX=0;exitY=0.88;entryX=0.69;entryY=0;rounded=0;" edge="1" parent="1" source="RO0mTksg29DLi3yOSm6j-752" target="RO0mTksg29DLi3yOSm6j-774">
          <mxGeometry relative="1" as="geometry">
            <Array as="points">
              <mxPoint x="3887" y="1113" />
            </Array>
          </mxGeometry>
        </mxCell>
        <mxCell id="RO0mTksg29DLi3yOSm6j-832" value="uses" style="curved=1;startArrow=none;endArrow=open;endSize=12;exitX=1;exitY=0.88;entryX=0.07;entryY=0;rounded=0;" edge="1" parent="1" source="RO0mTksg29DLi3yOSm6j-752" target="RO0mTksg29DLi3yOSm6j-790">
          <mxGeometry relative="1" as="geometry">
            <Array as="points">
              <mxPoint x="4883" y="1113" />
            </Array>
          </mxGeometry>
        </mxCell>
        <mxCell id="RO0mTksg29DLi3yOSm6j-833" value="extends" style="curved=1;startArrow=block;startSize=16;startFill=0;endArrow=none;exitX=0;exitY=0.65;entryX=0.45;entryY=0;rounded=0;" edge="1" parent="1" source="RO0mTksg29DLi3yOSm6j-760" target="RO0mTksg29DLi3yOSm6j-766">
          <mxGeometry relative="1" as="geometry">
            <Array as="points">
              <mxPoint x="1756" y="1113" />
            </Array>
          </mxGeometry>
        </mxCell>
        <mxCell id="RO0mTksg29DLi3yOSm6j-834" value="extends" style="curved=1;startArrow=block;startSize=16;startFill=0;endArrow=none;exitX=0.09;exitY=1;entryX=0.33;entryY=0;rounded=0;" edge="1" parent="1" source="RO0mTksg29DLi3yOSm6j-760" target="RO0mTksg29DLi3yOSm6j-770">
          <mxGeometry relative="1" as="geometry">
            <Array as="points">
              <mxPoint x="2461" y="1113" />
            </Array>
          </mxGeometry>
        </mxCell>
        <mxCell id="RO0mTksg29DLi3yOSm6j-835" value="extends" style="curved=1;startArrow=block;startSize=16;startFill=0;endArrow=none;exitX=1;exitY=0.78;entryX=0;entryY=0;rounded=0;" edge="1" parent="1" source="RO0mTksg29DLi3yOSm6j-760" target="RO0mTksg29DLi3yOSm6j-774">
          <mxGeometry relative="1" as="geometry">
            <Array as="points">
              <mxPoint x="3223" y="1113" />
            </Array>
          </mxGeometry>
        </mxCell>
        <mxCell id="RO0mTksg29DLi3yOSm6j-836" value="extends" style="curved=1;startArrow=block;startSize=16;startFill=0;endArrow=none;exitX=0.3;exitY=1;entryX=0.5;entryY=0;rounded=0;" edge="1" parent="1" source="RO0mTksg29DLi3yOSm6j-777" target="RO0mTksg29DLi3yOSm6j-782">
          <mxGeometry relative="1" as="geometry">
            <Array as="points">
              <mxPoint x="4341" y="1474" />
            </Array>
          </mxGeometry>
        </mxCell>
        <mxCell id="RO0mTksg29DLi3yOSm6j-837" value="extends" style="curved=1;startArrow=block;startSize=16;startFill=0;endArrow=none;exitX=0.7;exitY=1;entryX=0.5;entryY=0;rounded=0;" edge="1" parent="1" source="RO0mTksg29DLi3yOSm6j-777" target="RO0mTksg29DLi3yOSm6j-786">
          <mxGeometry relative="1" as="geometry">
            <Array as="points">
              <mxPoint x="4803" y="1474" />
            </Array>
          </mxGeometry>
        </mxCell>
      </root>
    </mxGraphModel>
  </diagram>
</mxfile>
